<svg xmlns="http://www.w3.org/2000/svg" viewBox="0 0 140 190" version="1.0"><defs><linearGradient id="a" y2="128.7" gradientUnits="userSpaceOnUse" x2="109" gradientTransform="translate(0 -1)" y1="63.1" x1="2"><stop offset="0" stop-color="#ebf0d0"/><stop offset="1" stop-color="#ffffeb"/></linearGradient></defs><path d="M21 5h103c8.86 0 16 7.136 16 16v153c0 8.86-7.14 16-16 16H21c-8.864 0-16-7.14-16-16V21c0-8.864 7.136-16 16-16z" fill-opacity=".498"/><path d="M17 1h103c8.86 0 16 7.136 16 16v153c0 8.86-7.14 16-16 16H17c-8.864 0-16-7.14-16-16V17C1 8.136 8.136 1 17 1z" fill="#fff"/><path d="M19 3h103c8.86 0 16 7.136 16 16v153c0 8.86-7.14 16-16 16H19c-8.864 0-16-7.14-16-16V19c0-8.864 7.136-16 16-16z" fill="#c7891f"/><path d="M18 2h103c8.86 0 16 7.136 16 16v153c0 8.86-7.14 16-16 16H18c-8.864 0-16-7.14-16-16V18C2 9.136 9.136 2 18 2z" fill="url(#a)"/><path d="M103.53 21c-.5.002-.97.099-1.44.281-.93.364-1.73 1.112-2.03 2.188-.173.645-.12 1.381.19 2s.93 1.119 1.75 1.125c.48.003.85-.196 1.16-.532.15-.167.31-.415.31-.718s-.21-.583-.47-.75l-.53.812c.07.046 0-.005 0-.062 0-.058.02-.022-.03.031-.1.106-.46.219-.44.219-.42-.003-.65-.217-.84-.594s-.23-.905-.13-1.281c.21-.751.72-1.231 1.41-1.5.69-.27 1.55-.298 2.25-.031 2.11.807 2.82 3.429 1.93 5.437-.77 1.764-2.58 2.83-4.5 2.906l-62.776.375v1l62.566-.375v.063c.07 0 .14-.06.21-.063h.35v-.093c2.16-.195 4.19-1.362 5.09-3.407 1.1-2.492.15-5.748-2.56-6.781-.47-.18-.97-.252-1.47-.25zm11.41 3.031c-.67.023-1.35.163-1.97.438-2.05.903-3.21 2.93-3.41 5.093h-.09v.344c0 .078-.06.141-.06.219h.06l.25 69.094h1l-.25-69.313c.08-1.919 1.14-3.72 2.91-4.5 2-.887 4.62-.178 5.43 1.938.27.698.24 1.561-.03 2.25-.27.688-.75 1.202-1.5 1.406-.37.102-.9.064-1.28-.125s-.59-.421-.59-.844c0 .018.11-.34.21-.437.06-.049.09-.031.04-.032-.06 0-.11-.07-.07 0l.82-.531c-.17-.259-.45-.468-.75-.469-.31 0-.55.16-.72.313-.34.306-.54.681-.53 1.156 0 .819.5 1.44 1.12 1.75a2.86 2.86 0 002 .188c1.08-.293 1.82-1.102 2.19-2.031.18-.465.28-.941.28-1.438s-.07-.996-.25-1.469c-.77-2.029-2.8-3.068-4.81-3zM29.281 90l.25 69.31c-.076 1.92-1.142 3.72-2.906 4.5-2.008.89-4.63.18-5.437-1.93-.267-.7-.239-1.57.031-2.26.269-.68.749-1.2 1.5-1.4.376-.1.904-.07 1.281.12s.591.42.594.85c0-.02-.113.34-.219.43-.053.05-.089.04-.031.04.057 0 .108.07.062 0l-.812.53c.167.26.447.47.75.47s.551-.16.718-.32c.336-.3.535-.68.532-1.15-.006-.82-.506-1.44-1.125-1.75s-1.355-.37-2-.19c-1.076.29-1.824 1.1-2.188 2.03-.182.47-.279.94-.281 1.44s.07.99.25 1.47c1.033 2.7 4.289 3.66 6.781 2.56 2.045-.9 3.212-2.93 3.407-5.09h.093v-.35c.003-.08.063-.14.063-.22h-.063L30.281 90h-1zm71.379 67.31l-62.566.38v-.07c-.078 0-.141.06-.219.07h-.344v.09c-2.163.2-4.19 1.36-5.093 3.41-1.101 2.49-.144 5.75 2.562 6.78.472.18.971.25 1.469.25.497 0 .972-.1 1.437-.28.93-.37 1.739-1.11 2.032-2.19.175-.65.122-1.38-.188-2s-.932-1.12-1.75-1.13c-.476 0-.85.2-1.156.54-.153.16-.314.41-.313.72.001.3.21.58.469.74l.531-.81c-.07-.04 0 .01 0 .07 0 .05-.017.02.031-.04.097-.1.455-.21.438-.22.423.01.655.22.844.6s.227.9.125 1.28c-.205.75-.718 1.23-1.407 1.5-.688.27-1.552.3-2.25.03-2.115-.81-2.824-3.43-1.937-5.44.779-1.76 2.581-2.83 4.5-2.9l62.785-.38v-1z" fill-rule="evenodd" fill="#9f0000"/><path d="M260.18 149.6c-4.84 19.24-19.68 52-10.28 62.12 5.71 4.66 8.42-4.88 9.57-11.19h.23l-3.79 31.84 8.78-.1s-3.78-30.6-3.79-31.77h.09c.93 5.16 4.46 15.83 8.34 11.77 11.34-11.4-5.36-43.83-9.15-62.67z" stroke-linejoin="round" fill-rule="evenodd" stroke="#000" stroke-width=".759" transform="matrix(1 0 0 .40081 -239.54 -11.052)"/><path d="M11.677 42.368v-23.59l-5.237-.069.253-3.622 4.954-3.089h5.492v30.37m13.434-15.222c0-3.75-.265-6.389-.796-7.916-.52-1.541-1.4-2.311-2.641-2.311-1.24 0-2.125.77-2.656 2.311-.53 1.527-.795 4.166-.795 7.916 0 3.791.265 6.464.795 8.018.531 1.554 1.416 2.331 2.656 2.331 1.231 0 2.111-.777 2.641-2.331.531-1.554.796-4.227.796-8.018m5.777.061c0 4.97-.8 8.807-2.401 11.513-1.601 2.693-3.872 4.039-6.813 4.039-2.951 0-5.227-1.346-6.827-4.039-1.601-2.706-2.401-6.543-2.401-11.513 0-4.983.8-8.821 2.401-11.514 1.6-2.706 3.876-4.059 6.827-4.059 2.941 0 5.212 1.353 6.813 4.059 1.601 2.693 2.401 6.531 2.401 11.514"/><path d="M260.18 149.6c-4.84 19.24-19.68 52-10.28 62.12 5.71 4.66 8.42-4.88 9.57-11.19h.23l-3.79 31.84 8.78-.1s-3.78-30.6-3.79-31.77h.09c.93 5.16 4.46 15.83 8.34 11.77 11.34-11.4-5.36-43.83-9.15-62.67z" stroke-linejoin="round" fill-rule="evenodd" stroke="#000" stroke-width=".759" transform="matrix(-1 0 0 -.40081 378.42 199.72)"/><path d="M127.2 146.47v23.59l5.24.06-.25 3.63-4.96 3.09h-5.49v-30.37m-13.43 15.22c0 3.75.26 6.39.79 7.91.52 1.54 1.4 2.31 2.64 2.31s2.13-.77 2.66-2.31c.53-1.52.79-4.16.79-7.91 0-3.79-.26-6.47-.79-8.02s-1.42-2.33-2.66-2.33c-1.23 0-2.11.78-2.64 2.33s-.79 4.23-.79 8.02m-5.78-.06c0-4.97.8-8.81 2.4-11.52 1.6-2.69 3.87-4.04 6.81-4.04 2.95 0 5.23 1.35 6.83 4.04 1.6 2.71 2.4 6.55 2.4 11.52 0 4.98-.8 8.82-2.4 11.51-1.6 2.71-3.88 4.06-6.83 4.06-2.94 0-5.21-1.35-6.81-4.06-1.6-2.69-2.4-6.53-2.4-11.51"/><path d="M48.913 36.226c-2.87 4.598-11.673 12.425-6.097 14.843 3.387 1.114 4.994-1.166 5.676-2.673h.136l-2.248 7.608 5.208-.024s-2.242-7.312-2.248-7.591h.054c.551 1.232 2.645 3.782 4.946 2.812 6.727-2.724-3.179-10.473-5.427-14.975zM68.898 50.33c-2.87 4.598-11.673 12.425-6.097 14.843 3.387 1.114 4.994-1.166 5.676-2.673h.136l-2.248 7.607 5.208-.023s-2.242-7.312-2.248-7.592h.054c.551 1.233 2.645 3.783 4.946 2.813 6.727-2.724-3.179-10.473-5.427-14.975zM90.053 36.144c-2.87 4.597-11.673 12.425-6.097 14.843 3.387 1.114 4.994-1.166 5.676-2.674h.136l-2.248 7.608 5.208-.024s-2.242-7.311-2.248-7.59h.054c.551 1.232 2.645 3.782 4.946 2.812 6.727-2.724-3.179-10.473-5.427-14.975zM48.393 71.403c-2.87 4.598-11.673 12.425-6.097 14.843 3.387 1.114 4.994-1.166 5.676-2.673h.136L45.86 91.18l5.208-.023s-2.242-7.312-2.248-7.592h.054c.551 1.233 2.645 3.783 4.946 2.813 6.727-2.724-3.179-10.473-5.427-14.975zM88.35 70.228c-2.87 4.598-11.673 12.425-6.097 14.843 3.387 1.114 4.994-1.166 5.676-2.673h.136l-2.248 7.607 5.208-.023s-2.242-7.312-2.248-7.592h.054c.551 1.233 2.645 3.783 4.946 2.813 6.727-2.724-3.179-10.473-5.427-14.975z" fill-rule="evenodd"/><g><path d="M48.207 119.385c2.87-4.598 11.673-12.425 6.097-14.843-3.387-1.114-4.994 1.166-5.676 2.673h-.136l2.248-7.607-5.208.023s2.242 7.312 2.248 7.592h-.054c-.551-1.233-2.645-3.783-4.946-2.813-6.727 2.724 3.179 10.473 5.427 14.975z" fill-rule="evenodd"/></g><g><path d="M89.877 119.465c2.87-4.598 11.673-12.425 6.097-14.843-3.387-1.114-4.994 1.166-5.676 2.673h-.136l2.248-7.607-5.208.023s2.242 7.312 2.248 7.592h-.054c-.551-1.233-2.645-3.783-4.946-2.813-6.727 2.724 3.179 10.473 5.427 14.975z" fill-rule="evenodd"/></g><g><path d="M68.717 137.015c2.87-4.598 11.673-12.425 6.097-14.843-3.387-1.114-4.994 1.166-5.676 2.673h-.136l2.248-7.607-5.208.023s2.242 7.312 2.248 7.592h-.054c-.551-1.233-2.645-3.783-4.946-2.813-6.727 2.724 3.179 10.473 5.427 14.975z" fill-rule="evenodd"/></g><g><path d="M90.517 150.025c2.87-4.598 11.673-12.425 6.097-14.843-3.387-1.114-4.994 1.166-5.676 2.673h-.136l2.248-7.607-5.208.023s2.242 7.312 2.248 7.592h-.054c-.551-1.233-2.645-3.783-4.946-2.813-6.727 2.724 3.179 10.473 5.427 14.975z" fill-rule="evenodd"/></g><g><path d="M49.387 150.025c2.87-4.598 11.673-12.425 6.097-14.843-3.387-1.114-4.994 1.166-5.676 2.673h-.136l2.248-7.607-5.208.023s2.242 7.312 2.248 7.592h-.054c-.551-1.233-2.645-3.783-4.946-2.813-6.727 2.724 3.179 10.473 5.427 14.975z" fill-rule="evenodd"/></g></svg>