<svg xmlns="http://www.w3.org/2000/svg" viewBox="0 0 140 190" version="1.0"><defs><linearGradient id="a" y2="128.7" gradientUnits="userSpaceOnUse" x2="109" gradientTransform="translate(0 -1)" y1="63.1" x1="2"><stop offset="0" stop-color="#ebf0d0"/><stop offset="1" stop-color="#ffffeb"/></linearGradient></defs><path d="M21 5h103c8.86 0 16 7.136 16 16v153c0 8.86-7.14 16-16 16H21c-8.864 0-16-7.14-16-16V21c0-8.864 7.136-16 16-16z" fill-opacity=".498"/><path d="M17 1h103c8.86 0 16 7.136 16 16v153c0 8.86-7.14 16-16 16H17c-8.864 0-16-7.14-16-16V17C1 8.136 8.136 1 17 1z" fill="#fff"/><path d="M19 3h103c8.86 0 16 7.136 16 16v153c0 8.86-7.14 16-16 16H19c-8.864 0-16-7.14-16-16V19c0-8.864 7.136-16 16-16z" fill="#c7891f"/><path d="M18 2h103c8.86 0 16 7.136 16 16v153c0 8.86-7.14 16-16 16H18c-8.864 0-16-7.14-16-16V18C2 9.136 9.136 2 18 2z" fill="url(#a)"/><path d="M103.53 21c-.5.002-.97.099-1.44.281-.93.364-1.73 1.112-2.03 2.188-.173.645-.12 1.381.19 2s.93 1.119 1.75 1.125c.48.003.85-.196 1.16-.532.15-.167.31-.415.31-.718s-.21-.583-.47-.75l-.53.812c.07.046 0-.005 0-.062 0-.058.02-.022-.03.031-.1.106-.46.219-.44.219-.42-.003-.65-.217-.84-.594s-.23-.905-.13-1.281c.21-.751.72-1.231 1.41-1.5.69-.27 1.55-.298 2.25-.031 2.11.807 2.82 3.429 1.93 5.437-.77 1.764-2.58 2.83-4.5 2.906l-62.776.375v1l62.566-.375v.063c.07 0 .14-.06.21-.063h.35v-.093c2.16-.195 4.19-1.362 5.09-3.407 1.1-2.492.15-5.748-2.56-6.781-.47-.18-.97-.252-1.47-.25zm11.41 3.031c-.67.023-1.35.163-1.97.438-2.05.903-3.21 2.93-3.41 5.093h-.09v.344c0 .078-.06.141-.06.219h.06l.25 69.094h1l-.25-69.313c.08-1.919 1.14-3.72 2.91-4.5 2-.887 4.62-.178 5.43 1.938.27.698.24 1.561-.03 2.25-.27.688-.75 1.202-1.5 1.406-.37.102-.9.064-1.28-.125s-.59-.421-.59-.844c0 .018.11-.34.21-.437.06-.049.09-.031.04-.032-.06 0-.11-.07-.07 0l.82-.531c-.17-.259-.45-.468-.75-.469-.31 0-.55.16-.72.313-.34.306-.54.681-.53 1.156 0 .819.5 1.44 1.12 1.75a2.86 2.86 0 002 .188c1.08-.293 1.82-1.102 2.19-2.031.18-.465.28-.941.28-1.438s-.07-.996-.25-1.469c-.77-2.029-2.8-3.068-4.81-3zM29.281 90l.25 69.31c-.076 1.92-1.142 3.72-2.906 4.5-2.008.89-4.63.18-5.437-1.93-.267-.7-.239-1.57.031-2.26.269-.68.749-1.2 1.5-1.4.376-.1.904-.07 1.281.12s.591.42.594.85c0-.02-.113.34-.219.43-.053.05-.089.04-.031.04.057 0 .108.07.062 0l-.812.53c.167.26.447.47.75.47s.551-.16.718-.32c.336-.3.535-.68.532-1.15-.006-.82-.506-1.44-1.125-1.75s-1.355-.37-2-.19c-1.076.29-1.824 1.1-2.188 2.03-.182.47-.279.94-.281 1.44s.07.99.25 1.47c1.033 2.7 4.289 3.66 6.781 2.56 2.045-.9 3.212-2.93 3.407-5.09h.093v-.35c.003-.08.063-.14.063-.22h-.063L30.281 90h-1zm71.379 67.31l-62.566.38v-.07c-.078 0-.141.06-.219.07h-.344v.09c-2.163.2-4.19 1.36-5.093 3.41-1.101 2.49-.144 5.75 2.562 6.78.472.18.971.25 1.469.25.497 0 .972-.1 1.437-.28.93-.37 1.739-1.11 2.032-2.19.175-.65.122-1.38-.188-2s-.932-1.12-1.75-1.13c-.476 0-.85.2-1.156.54-.153.16-.314.41-.313.72.001.3.21.58.469.74l.531-.81c-.07-.04 0 .01 0 .07 0 .05-.017.02.031-.04.097-.1.455-.21.438-.22.423.01.655.22.844.6s.227.9.125 1.28c-.205.75-.718 1.23-1.407 1.5-.688.27-1.552.3-2.25.03-2.115-.81-2.824-3.43-1.937-5.44.779-1.76 2.581-2.83 4.5-2.9l62.785-.38v-1z" fill-rule="evenodd" fill="#9f0000"/><path d="M69.839 45c-1.553 0-2.814 1.918-2.814 4.281 0 2.014 2.559 5.402 2.459 7.011-.821.459-3.359-3.783-4.671-3.783-1.553 0-2.813 1.917-2.813 4.281s1.26 4.281 2.813 4.281c1.347 0 3.656-4.239 4.671-3.856l-1.706 7.565 4.092-.025s-1.793-7.334-1.795-7.507h.032v.008c.995-.376 3.382 3.897 4.72 3.897 1.553 0 2.813-1.918 2.813-4.281 0-2.364-1.26-4.282-2.813-4.282-1.307 0-3.675 4.173-4.714 3.743.014-1.649 2.539-5.04 2.539-7.052 0-2.363-1.26-4.281-2.813-4.281zM70.199 86.22c-1.553 0-2.814 1.918-2.814 4.281 0 2.014 2.559 5.402 2.459 7.011-.821.459-3.359-3.783-4.671-3.783-1.553 0-2.813 1.917-2.813 4.281 0 2.36 1.26 4.28 2.813 4.28 1.347 0 3.656-4.238 4.671-3.855L68.138 106l4.092-.02s-1.793-7.339-1.795-7.512h.032v.008c.995-.376 3.382 3.894 4.72 3.894 1.553 0 2.813-1.91 2.813-4.278 0-2.364-1.26-4.282-2.813-4.282-1.307 0-3.675 4.173-4.714 3.743.014-1.649 2.539-5.04 2.539-7.052 0-2.363-1.26-4.281-2.813-4.281zM69.161 143c1.553 0 2.814-1.92 2.814-4.28 0-2.01-2.559-5.4-2.459-7.01.821-.46 3.359 3.78 4.671 3.78 1.553 0 2.813-1.92 2.813-4.28s-1.26-4.28-2.813-4.28c-1.347 0-3.656 4.24-4.671 3.86l1.706-7.57-4.092.02s1.793 7.34 1.795 7.51h-.032v-.01c-.995.38-3.382-3.89-4.72-3.89-1.553 0-2.813 1.91-2.813 4.28 0 2.36 1.26 4.28 2.813 4.28 1.307 0 3.675-4.17 4.714-3.74-.014 1.65-2.539 5.04-2.539 7.05 0 2.36 1.26 4.28 2.813 4.28zM20.527 48.665c-2.666 0-4.83 3.264-4.83 7.286 0 3.426 4.392 9.191 4.222 11.929-1.41.783-5.767-6.437-8.019-6.437-2.667 0-4.83 3.263-4.83 7.285 0 4.023 2.163 7.286 4.83 7.286 2.312 0 6.276-7.214 8.019-6.563L16.99 82.325l7.024-.042s-3.077-12.481-3.081-12.776h.055v.014c1.707-.64 5.806 6.632 8.102 6.632 2.667 0 4.83-3.263 4.83-7.286 0-4.022-2.163-7.285-4.83-7.285-2.242 0-6.308 7.1-8.093 6.368.025-2.806 4.36-8.577 4.36-11.999 0-4.022-2.163-7.286-4.83-7.286zM117.42 139.96c2.66 0 4.83-3.26 4.83-7.28 0-3.43-4.39-9.19-4.22-11.93 1.41-.79 5.76 6.43 8.02 6.43 2.66 0 4.83-3.26 4.83-7.28s-2.17-7.29-4.83-7.29c-2.32 0-6.28 7.22-8.02 6.57l2.93-12.88-7.03.04s3.08 12.49 3.08 12.78h-.05v-.01c-1.71.64-5.81-6.64-8.1-6.64-2.67 0-4.83 3.27-4.83 7.29s2.16 7.29 4.83 7.29c2.24 0 6.3-7.1 8.09-6.37-.03 2.8-4.36 8.57-4.36 12 0 4.02 2.16 7.28 4.83 7.28z" fill-rule="evenodd"/><path d="M24.608 26.063c1.672.522 2.94 1.433 3.804 2.732.875 1.286 1.312 2.927 1.312 4.923 0 2.974-.941 5.238-2.824 6.792-1.883 1.54-4.629 2.311-8.24 2.311a19.75 19.75 0 01-3.838-.382 20.795 20.795 0 01-3.787-1.105v-5.968c1.196.723 2.381 1.273 3.555 1.648 1.185.361 2.348.542 3.489.542 1.694 0 2.99-.355 3.887-1.065.908-.71 1.362-1.728 1.362-3.054 0-1.366-.465-2.398-1.395-3.094-.919-.71-2.282-1.065-4.087-1.065h-2.558v-4.984h2.691c1.606 0 2.802-.301 3.588-.904.787-.616 1.18-1.547 1.18-2.793 0-1.152-.382-2.043-1.146-2.672-.765-.63-1.845-.945-3.24-.945-1.03 0-2.071.141-3.123.422a15.123 15.123 0 00-3.14 1.246v-5.666a24.85 24.85 0 013.754-.965 21.481 21.481 0 013.655-.321c3.223 0 5.632.643 7.227 1.929 1.606 1.272 2.409 3.195 2.409 5.767 0 1.754-.382 3.195-1.146 4.32-.765 1.112-1.894 1.895-3.389 2.351M114.07 162.93c-1.67-.52-2.94-1.43-3.8-2.73-.88-1.29-1.31-2.93-1.31-4.92 0-2.98.94-5.24 2.82-6.79 1.88-1.54 4.63-2.31 8.24-2.31 1.27 0 2.55.12 3.84.38 1.27.24 2.53.61 3.79 1.1v5.97c-1.2-.72-2.39-1.27-3.56-1.65a11.95 11.95 0 00-3.49-.54c-1.69 0-2.99.35-3.89 1.06s-1.36 1.73-1.36 3.06c0 1.37.47 2.4 1.4 3.09.92.71 2.28 1.07 4.08 1.07h2.56v4.98h-2.69c-1.6 0-2.8.3-3.59.91-.78.61-1.18 1.54-1.18 2.79 0 1.15.39 2.04 1.15 2.67s1.84.95 3.24.95c1.03 0 2.07-.15 3.12-.43s2.1-.69 3.14-1.24v5.66c-1.26.43-2.51.75-3.75.97-1.24.21-2.46.32-3.66.32-3.22 0-5.63-.64-7.22-1.93-1.61-1.27-2.41-3.19-2.41-5.77 0-1.75.38-3.19 1.14-4.32.77-1.11 1.9-1.89 3.39-2.35"/></svg>