<svg xmlns="http://www.w3.org/2000/svg" viewBox="0 0 140 190" version="1.0"><defs><linearGradient id="a" y2="128.7" gradientUnits="userSpaceOnUse" y1="63.1" gradientTransform="translate(0 -1)" x2="109" x1="2"><stop offset="0" stop-color="#ebf0d0"/><stop offset="1" stop-color="#ffffeb"/></linearGradient></defs><path d="M21 5h103c8.86 0 16 7.136 16 16v153c0 8.86-7.14 16-16 16H21c-8.864 0-16-7.14-16-16V21c0-8.864 7.136-16 16-16z" fill-opacity=".498"/><path d="M17 1h103c8.86 0 16 7.136 16 16v153c0 8.86-7.14 16-16 16H17c-8.864 0-16-7.14-16-16V17C1 8.136 8.136 1 17 1z" fill="#fff"/><path d="M19 3h103c8.86 0 16 7.136 16 16v153c0 8.86-7.14 16-16 16H19c-8.864 0-16-7.14-16-16V19c0-8.864 7.136-16 16-16z" fill="#c7891f"/><path d="M18 2h103c8.86 0 16 7.136 16 16v153c0 8.86-7.14 16-16 16H18c-8.864 0-16-7.14-16-16V18C2 9.136 9.136 2 18 2z" fill="url(#a)"/><path d="M103.53 21c-.5.002-.97.099-1.44.281-.93.364-1.73 1.112-2.03 2.188-.173.645-.12 1.381.19 2s.93 1.119 1.75 1.125c.48.003.85-.196 1.16-.532.15-.167.31-.415.31-.718s-.21-.583-.47-.75l-.53.812c.07.046 0-.005 0-.062 0-.058.02-.022-.03.031-.1.106-.46.219-.44.219-.42-.003-.65-.217-.84-.594s-.23-.905-.13-1.281c.21-.751.72-1.231 1.41-1.5.69-.27 1.55-.298 2.25-.031 2.11.807 2.82 3.429 1.93 5.437-.77 1.764-2.58 2.83-4.5 2.906l-62.776.375v1l62.566-.375v.063c.07 0 .14-.06.21-.063h.35v-.093c2.16-.195 4.19-1.362 5.09-3.407 1.1-2.492.15-5.748-2.56-6.781-.47-.18-.97-.252-1.47-.25zm11.41 3.031c-.67.023-1.35.163-1.97.438-2.05.903-3.21 2.93-3.41 5.093h-.09v.344c0 .078-.06.141-.06.219h.06l.25 69.094h1l-.25-69.313c.08-1.919 1.14-3.72 2.91-4.5 2-.887 4.62-.178 5.43 1.938.27.698.24 1.561-.03 2.25-.27.688-.75 1.202-1.5 1.406-.37.102-.9.064-1.28-.125s-.59-.421-.59-.844c0 .018.11-.34.21-.437.06-.049.09-.031.04-.032-.06 0-.11-.07-.07 0l.82-.531c-.17-.259-.45-.468-.75-.469-.31 0-.55.16-.72.313-.34.306-.54.681-.53 1.156 0 .819.5 1.44 1.12 1.75a2.86 2.86 0 002 .188c1.08-.293 1.82-1.102 2.19-2.031.18-.465.28-.941.28-1.438s-.07-.996-.25-1.469c-.77-2.029-2.8-3.068-4.81-3zM29.281 90l.25 69.31c-.076 1.92-1.142 3.72-2.906 4.5-2.008.89-4.63.18-5.437-1.93-.267-.7-.239-1.57.031-2.26.269-.68.749-1.2 1.5-1.4.376-.1.904-.07 1.281.12s.591.42.594.85c0-.02-.113.34-.219.43-.053.05-.089.04-.031.04.057 0 .108.07.062 0l-.812.53c.167.26.447.47.75.47s.551-.16.718-.32c.336-.3.535-.68.532-1.15-.006-.82-.506-1.44-1.125-1.75s-1.355-.37-2-.19c-1.076.29-1.824 1.1-2.188 2.03-.182.47-.279.94-.281 1.44s.07.99.25 1.47c1.033 2.7 4.289 3.66 6.781 2.56 2.045-.9 3.212-2.93 3.407-5.09h.093v-.35c.003-.08.063-.14.063-.22h-.063L30.281 90h-1zm71.379 67.31l-62.566.38v-.07c-.078 0-.141.06-.219.07h-.344v.09c-2.163.2-4.19 1.36-5.093 3.41-1.101 2.49-.144 5.75 2.562 6.78.472.18.971.25 1.469.25.497 0 .972-.1 1.437-.28.93-.37 1.739-1.11 2.032-2.19.175-.65.122-1.38-.188-2s-.932-1.12-1.75-1.13c-.476 0-.85.2-1.156.54-.153.16-.314.41-.313.72.001.3.21.58.469.74l.531-.81c-.07-.04 0 .01 0 .07 0 .05-.017.02.031-.04.097-.1.455-.21.438-.22.423.01.655.22.844.6s.227.9.125 1.28c-.205.75-.718 1.23-1.407 1.5-.688.27-1.552.3-2.25.03-2.115-.81-2.824-3.43-1.937-5.44.779-1.76 2.581-2.83 4.5-2.9l62.785-.38v-1z" fill-rule="evenodd" fill="#9f0000"/><g fill="red"><path d="M24.608 26.063c1.672.522 2.94 1.434 3.804 2.733.875 1.287 1.312 2.928 1.312 4.924 0 2.974-.94 5.237-2.824 6.791-1.883 1.541-4.629 2.31-8.24 2.31-1.274 0-2.553-.127-3.838-.38a20.72 20.72 0 01-3.788-1.106v-5.968c1.197.723 2.382 1.273 3.555 1.648 1.186.362 2.35.542 3.49.542 1.694 0 2.99-.355 3.887-1.065.908-.71 1.362-1.727 1.362-3.054 0-1.367-.465-2.398-1.395-3.095-.92-.71-2.282-1.064-4.087-1.064h-2.558v-4.983h2.691c1.606 0 2.802-.303 3.588-.905.787-.616 1.18-1.547 1.18-2.793 0-1.152-.382-2.043-1.146-2.672-.765-.63-1.844-.945-3.24-.945-1.03 0-2.071.14-3.123.422-1.052.28-2.099.696-3.14 1.245v-5.666c1.262-.429 2.514-.75 3.754-.964s2.46-.322 3.656-.322c3.222 0 5.63.643 7.226 1.93 1.606 1.272 2.41 3.194 2.41 5.766 0 1.755-.383 3.196-1.147 4.32-.765 1.113-1.894 1.896-3.39 2.351M114.07 162.935c-1.674-.517-2.938-1.43-3.802-2.727-.873-1.287-1.309-2.926-1.309-4.927 0-2.97.937-5.235 2.819-6.786s4.628-2.32 8.238-2.32c1.273 0 2.555.131 3.837.384 1.282.242 2.537.616 3.792 1.111v5.961c-1.2-.715-2.383-1.265-3.556-1.65-1.182-.352-2.346-.539-3.491-.539-1.691 0-2.992.352-3.883 1.067-.91.715-1.364 1.727-1.364 3.058 0 1.363.464 2.397 1.391 3.09.928.715 2.283 1.067 4.092 1.067h2.555v4.982h-2.691c-1.6 0-2.8.297-3.583.902-.79.616-1.182 1.55-1.182 2.793 0 1.155.382 2.046 1.146 2.673s1.846.946 3.237.946c1.037 0 2.073-.143 3.128-.418 1.055-.286 2.1-.704 3.137-1.254v5.675c-1.264.429-2.51.748-3.755.957-1.237.22-2.456.33-3.656.33-3.219 0-5.628-.65-7.229-1.936-1.6-1.276-2.4-3.19-2.4-5.763 0-1.76.382-3.2 1.146-4.322.763-1.11 1.891-1.892 3.382-2.354"/></g><path d="M20.41 48.665c-4.126 8.245-7.135 12.498-13.34 17.04 5.872 4.487 10.013 9.124 13.46 16.62 3.079-7.121 6.847-12.43 13.39-16.843-6.582-3.349-10.393-8.654-13.51-16.817zM69.77 45.22c-2.403 4.845-4.155 7.344-7.77 10.013 3.421 2.637 5.832 5.362 7.84 9.767 1.794-4.185 3.988-7.304 7.8-9.898-3.834-1.968-6.054-5.085-7.87-9.882zM70.13 86.22c-2.403 4.845-4.155 7.344-7.77 10.013 3.421 2.637 5.832 5.367 7.84 9.767 1.794-4.18 3.988-7.304 7.8-9.898-3.834-1.968-6.054-5.085-7.87-9.882zM69.13 123.22c-2.403 4.85-4.155 7.34-7.77 10.01 3.421 2.64 5.832 5.37 7.84 9.77 1.794-4.18 3.988-7.3 7.8-9.9-3.834-1.97-6.054-5.08-7.87-9.88zM118.34 106.34c-4.13 8.25-7.13 12.5-13.34 17.04 5.87 4.49 10.01 9.12 13.46 16.62 3.08-7.12 6.85-12.43 13.39-16.84-6.58-3.35-10.39-8.66-13.51-16.82z" fill-rule="evenodd" fill="red"/></svg>