<svg xmlns="http://www.w3.org/2000/svg" viewBox="0 0 140 190" version="1.0"><defs><linearGradient id="a" y2="128.7" gradientUnits="userSpaceOnUse" y1="63.1" gradientTransform="translate(0 -1)" x2="109" x1="2"><stop offset="0" stop-color="#ebf0d0"/><stop offset="1" stop-color="#ffffeb"/></linearGradient></defs><path d="M21 5h103c8.86 0 16 7.136 16 16v153c0 8.86-7.14 16-16 16H21c-8.864 0-16-7.14-16-16V21c0-8.864 7.136-16 16-16z" fill-opacity=".498"/><path d="M17 1h103c8.86 0 16 7.136 16 16v153c0 8.86-7.14 16-16 16H17c-8.864 0-16-7.14-16-16V17C1 8.136 8.136 1 17 1z" fill="#fff"/><path d="M19 3h103c8.86 0 16 7.136 16 16v153c0 8.86-7.14 16-16 16H19c-8.864 0-16-7.14-16-16V19c0-8.864 7.136-16 16-16z" fill="#c7891f"/><path d="M18 2h103c8.86 0 16 7.136 16 16v153c0 8.86-7.14 16-16 16H18c-8.864 0-16-7.14-16-16V18C2 9.136 9.136 2 18 2z" fill="url(#a)"/><path d="M103.53 21c-.5.002-.97.099-1.44.281-.93.364-1.73 1.112-2.03 2.188-.173.645-.12 1.381.19 2s.93 1.119 1.75 1.125c.48.003.85-.196 1.16-.532.15-.167.31-.415.31-.718s-.21-.583-.47-.75l-.53.812c.07.046 0-.005 0-.062 0-.058.02-.022-.03.031-.1.106-.46.219-.44.219-.42-.003-.65-.217-.84-.594s-.23-.905-.13-1.281c.21-.751.72-1.231 1.41-1.5.69-.27 1.55-.298 2.25-.031 2.11.807 2.82 3.429 1.93 5.437-.77 1.764-2.58 2.83-4.5 2.906l-62.776.375v1l62.566-.375v.063c.07 0 .14-.06.21-.063h.35v-.093c2.16-.195 4.19-1.362 5.09-3.407 1.1-2.492.15-5.748-2.56-6.781-.47-.18-.97-.252-1.47-.25zm11.41 3.031c-.67.023-1.35.163-1.97.438-2.05.903-3.21 2.93-3.41 5.093h-.09v.344c0 .078-.06.141-.06.219h.06l.25 69.094h1l-.25-69.313c.08-1.919 1.14-3.72 2.91-4.5 2-.887 4.62-.178 5.43 1.938.27.698.24 1.561-.03 2.25-.27.688-.75 1.202-1.5 1.406-.37.102-.9.064-1.28-.125s-.59-.421-.59-.844c0 .018.11-.34.21-.437.06-.049.09-.031.04-.032-.06 0-.11-.07-.07 0l.82-.531c-.17-.259-.45-.468-.75-.469-.31 0-.55.16-.72.313-.34.306-.54.681-.53 1.156 0 .819.5 1.44 1.12 1.75a2.86 2.86 0 002 .188c1.08-.293 1.82-1.102 2.19-2.031.18-.465.28-.941.28-1.438s-.07-.996-.25-1.469c-.77-2.029-2.8-3.068-4.81-3zM29.281 90l.25 69.31c-.076 1.92-1.142 3.72-2.906 4.5-2.008.89-4.63.18-5.437-1.93-.267-.7-.239-1.57.031-2.26.269-.68.749-1.2 1.5-1.4.376-.1.904-.07 1.281.12s.591.42.594.85c0-.02-.113.34-.219.43-.053.05-.089.04-.031.04.057 0 .108.07.062 0l-.812.53c.167.26.447.47.75.47s.551-.16.718-.32c.336-.3.535-.68.532-1.15-.006-.82-.506-1.44-1.125-1.75s-1.355-.37-2-.19c-1.076.29-1.824 1.1-2.188 2.03-.182.47-.279.94-.281 1.44s.07.99.25 1.47c1.033 2.7 4.289 3.66 6.781 2.56 2.045-.9 3.212-2.93 3.407-5.09h.093v-.35c.003-.08.063-.14.063-.22h-.063L30.281 90h-1zm71.379 67.31l-62.566.38v-.07c-.078 0-.141.06-.219.07h-.344v.09c-2.163.2-4.19 1.36-5.093 3.41-1.101 2.49-.144 5.75 2.562 6.78.472.18.971.25 1.469.25.497 0 .972-.1 1.437-.28.93-.37 1.739-1.11 2.032-2.19.175-.65.122-1.38-.188-2s-.932-1.12-1.75-1.13c-.476 0-.85.2-1.156.54-.153.16-.314.41-.313.72.001.3.21.58.469.74l.531-.81c-.07-.04 0 .01 0 .07 0 .05-.017.02.031-.04.097-.1.455-.21.438-.22.423.01.655.22.844.6s.227.9.125 1.28c-.205.75-.718 1.23-1.407 1.5-.688.27-1.552.3-2.25.03-2.115-.81-2.824-3.43-1.937-5.44.779-1.76 2.581-2.83 4.5-2.9l62.785-.38v-1z" fill-rule="evenodd" fill="#9f0000"/><path d="M12.604 11.998h15.898v5.687H17.704v4.641a9.627 9.627 0 011.462-.361 8.314 8.314 0 011.545-.141c3.023 0 5.377.917 7.061 2.753 1.683 1.822 2.525 4.367 2.525 7.635 0 3.242-.92 5.78-2.758 7.616-1.828 1.835-4.369 2.753-7.626 2.753-1.406 0-2.802-.168-4.186-.503a19.213 19.213 0 01-4.104-1.487v-6.088c1.352.938 2.631 1.641 3.838 2.11 1.218.469 2.365.703 3.439.703 1.551 0 2.769-.455 3.655-1.366.897-.925 1.346-2.17 1.346-3.738 0-1.58-.449-2.826-1.346-3.737-.886-.911-2.104-1.367-3.655-1.367-.919 0-1.899.148-2.941.443-1.041.281-2.159.723-3.355 1.326V11.998" fill="red"/><path d="M13.554 48.845c-.804.004-1.687.201-2.662.642-10.643 8.197 3.704 21.422 9.763 32.775l.177.06c6.658-12.412 19.334-26.07 9.647-32.835-7.671-3.463-9.723 8.058-9.792 8.474-.063-.365-1.63-9.154-7.133-9.116z" fill-rule="evenodd" fill="red"/><path d="M126.26 177h-15.9v-5.68h10.8v-4.65c-.49.16-.97.29-1.46.37-.5.09-1.01.14-1.55.14-3.02 0-5.37-.92-7.06-2.76-1.68-1.82-2.52-4.36-2.52-7.63 0-3.24.92-5.78 2.76-7.62 1.82-1.83 4.37-2.75 7.62-2.75 1.41 0 2.8.17 4.19.5 1.37.32 2.74.82 4.1 1.49v6.09c-1.35-.94-2.63-1.64-3.84-2.11s-2.36-.71-3.43-.71c-1.56 0-2.77.46-3.66 1.37-.9.92-1.35 2.17-1.35 3.74 0 1.58.45 2.82 1.35 3.74.89.91 2.1 1.36 3.66 1.36.91 0 1.89-.15 2.94-.44 1.04-.28 2.16-.72 3.35-1.33V177" fill="red"/><path d="M125.308 139.993c.804-.004 1.687-.202 2.662-.642 10.643-8.197-3.704-21.423-9.763-32.776l-.177-.059c-6.658 12.411-19.334 26.069-9.647 32.835 7.671 3.462 9.723-8.059 9.792-8.474.063.365 1.63 9.154 7.133 9.116z" fill-rule="evenodd" fill="red"/><g fill="red"><path d="M47.126 45.222c-.467.002-.98.119-1.546.38-6.183 4.842 2.151 12.654 5.671 19.361l.103.035c3.867-7.332 11.23-15.4 5.603-19.397-4.455-2.045-5.647 4.76-5.687 5.006-.037-.216-.947-5.407-4.144-5.385z" fill-rule="evenodd"/></g><g fill="red"><path d="M83.126 45.222c-.467.002-.98.119-1.546.38-6.183 4.842 2.151 12.654 5.671 19.361l.103.035c3.867-7.332 11.23-15.4 5.603-19.397-4.455-2.045-5.647 4.76-5.687 5.006-.037-.216-.947-5.407-4.144-5.385z" fill-rule="evenodd"/></g><g fill="red"><path d="M65.766 82.222c-.467.002-.98.119-1.546.38-6.183 4.842 2.151 12.654 5.671 19.361l.103.035c3.867-7.332 11.23-15.4 5.603-19.397-4.455-2.045-5.647 4.76-5.687 5.006-.037-.216-.947-5.407-4.144-5.385z" fill-rule="evenodd"/></g><g fill="red"><path d="M57.234 141.78c.467-.002.98-.119 1.546-.38 6.183-4.842-2.151-12.654-5.671-19.361l-.103-.035c-3.867 7.332-11.23 15.4-5.603 19.397 4.455 2.045 5.647-4.76 5.687-5.006.037.216.947 5.407 4.144 5.385z" fill-rule="evenodd"/></g><g fill="red"><path d="M92.238 141.78c.467-.002.98-.119 1.546-.38 6.183-4.842-2.151-12.654-5.671-19.361l-.103-.035c-3.867 7.332-11.23 15.4-5.603 19.397 4.455 2.045 5.647-4.76 5.687-5.006.037.216.947 5.407 4.144 5.385z" fill-rule="evenodd"/></g></svg>