<svg xmlns="http://www.w3.org/2000/svg" viewBox="0 0 140 190" version="1.0"><defs><linearGradient id="a" y2="128.7" gradientUnits="userSpaceOnUse" y1="63.1" gradientTransform="translate(0 -1)" x2="109" x1="2"><stop offset="0" stop-color="#ebf0d0"/><stop offset="1" stop-color="#ffffeb"/></linearGradient></defs><path d="M21 5h103c8.86 0 16 7.136 16 16v153c0 8.86-7.14 16-16 16H21c-8.864 0-16-7.14-16-16V21c0-8.864 7.136-16 16-16z" fill-opacity=".498"/><path d="M17 1h103c8.86 0 16 7.136 16 16v153c0 8.86-7.14 16-16 16H17c-8.864 0-16-7.14-16-16V17C1 8.136 8.136 1 17 1z" fill="#fff"/><path d="M19 3h103c8.86 0 16 7.136 16 16v153c0 8.86-7.14 16-16 16H19c-8.864 0-16-7.14-16-16V19c0-8.864 7.136-16 16-16z" fill="#c7891f"/><path d="M18 2h103c8.86 0 16 7.136 16 16v153c0 8.86-7.14 16-16 16H18c-8.864 0-16-7.14-16-16V18C2 9.136 9.136 2 18 2z" fill="url(#a)"/><path d="M103.53 21c-.5.002-.97.099-1.44.281-.93.364-1.73 1.112-2.03 2.188-.173.645-.12 1.381.19 2s.93 1.119 1.75 1.125c.48.003.85-.196 1.16-.532.15-.167.31-.415.31-.718s-.21-.583-.47-.75l-.53.812c.07.046 0-.005 0-.062 0-.058.02-.022-.03.031-.1.106-.46.219-.44.219-.42-.003-.65-.217-.84-.594s-.23-.905-.13-1.281c.21-.751.72-1.231 1.41-1.5.69-.27 1.55-.298 2.25-.031 2.11.807 2.82 3.429 1.93 5.437-.77 1.764-2.58 2.83-4.5 2.906l-62.776.375v1l62.566-.375v.063c.07 0 .14-.06.21-.063h.35v-.093c2.16-.195 4.19-1.362 5.09-3.407 1.1-2.492.15-5.748-2.56-6.781-.47-.18-.97-.252-1.47-.25zm11.41 3.031c-.67.023-1.35.163-1.97.438-2.05.903-3.21 2.93-3.41 5.093h-.09v.344c0 .078-.06.141-.06.219h.06l.25 69.094h1l-.25-69.313c.08-1.919 1.14-3.72 2.91-4.5 2-.887 4.62-.178 5.43 1.938.27.698.24 1.561-.03 2.25-.27.688-.75 1.202-1.5 1.406-.37.102-.9.064-1.28-.125s-.59-.421-.59-.844c0 .018.11-.34.21-.437.06-.049.09-.031.04-.032-.06 0-.11-.07-.07 0l.82-.531c-.17-.259-.45-.468-.75-.469-.31 0-.55.16-.72.313-.34.306-.54.681-.53 1.156 0 .819.5 1.44 1.12 1.75a2.86 2.86 0 002 .188c1.08-.293 1.82-1.102 2.19-2.031.18-.465.28-.941.28-1.438s-.07-.996-.25-1.469c-.77-2.029-2.8-3.068-4.81-3zM29.281 90l.25 69.31c-.076 1.92-1.142 3.72-2.906 4.5-2.008.89-4.63.18-5.437-1.93-.267-.7-.239-1.57.031-2.26.269-.68.749-1.2 1.5-1.4.376-.1.904-.07 1.281.12s.591.42.594.85c0-.02-.113.34-.219.43-.053.05-.089.04-.031.04.057 0 .108.07.062 0l-.812.53c.167.26.447.47.75.47s.551-.16.718-.32c.336-.3.535-.68.532-1.15-.006-.82-.506-1.44-1.125-1.75s-1.355-.37-2-.19c-1.076.29-1.824 1.1-2.188 2.03-.182.47-.279.94-.281 1.44s.07.99.25 1.47c1.033 2.7 4.289 3.66 6.781 2.56 2.045-.9 3.212-2.93 3.407-5.09h.093v-.35c.003-.08.063-.14.063-.22h-.063L30.281 90h-1zm71.379 67.31l-62.566.38v-.07c-.078 0-.141.06-.219.07h-.344v.09c-2.163.2-4.19 1.36-5.093 3.41-1.101 2.49-.144 5.75 2.562 6.78.472.18.971.25 1.469.25.497 0 .972-.1 1.437-.28.93-.37 1.739-1.11 2.032-2.19.175-.65.122-1.38-.188-2s-.932-1.12-1.75-1.13c-.476 0-.85.2-1.156.54-.153.16-.314.41-.313.72.001.3.21.58.469.74l.531-.81c-.07-.04 0 .01 0 .07 0 .05-.017.02.031-.04.097-.1.455-.21.438-.22.423.01.655.22.844.6s.227.9.125 1.28c-.205.75-.718 1.23-1.407 1.5-.688.27-1.552.3-2.25.03-2.115-.81-2.824-3.43-1.937-5.44.779-1.76 2.581-2.83 4.5-2.9l62.785-.38v-1z" fill-rule="evenodd" fill="#9f0000"/><path d="M20.844 28.575c-1.196 0-2.116.395-2.758 1.186-.642.79-.964 1.922-.964 3.396 0 1.473.322 2.605.964 3.395.642.777 1.562 1.166 2.758 1.166 1.185 0 2.093-.389 2.724-1.166.632-.79.947-1.922.947-3.395 0-1.487-.315-2.619-.947-3.396-.631-.791-1.539-1.186-2.724-1.186m-4.669-2.552c-1.506-.549-2.641-1.393-3.405-2.531-.764-1.139-1.147-2.559-1.147-4.26 0-2.532.781-4.461 2.343-5.787s3.854-1.989 6.878-1.989c3.001 0 5.283.663 6.844 1.989 1.562 1.313 2.343 3.242 2.343 5.787 0 1.701-.388 3.121-1.163 4.26-.764 1.138-1.899 1.982-3.406 2.531 1.684.563 2.952 1.481 3.805 2.753.864 1.259 1.296 2.854 1.296 4.783 0 2.973-.82 5.224-2.459 6.751-1.628 1.514-4.048 2.271-7.26 2.271-3.223 0-5.66-.757-7.31-2.271-1.639-1.527-2.459-3.778-2.459-6.751 0-1.929.427-3.524 1.279-4.783.864-1.272 2.138-2.19 3.821-2.753m1.496-6.008c0 1.193.271 2.11.814 2.753.553.643 1.34.965 2.359.965.997 0 1.766-.322 2.309-.965s.814-1.56.814-2.753c0-1.192-.271-2.103-.814-2.732-.543-.643-1.312-.965-2.309-.965-1.019 0-1.806.322-2.359.965-.543.643-.814 1.554-.814 2.732" fill="red"/><path d="M13.554 48.845c-.804.004-1.687.201-2.662.642-10.643 8.197 3.704 21.422 9.763 32.775l.177.06c6.658-12.412 19.334-26.07 9.647-32.835-7.671-3.463-9.723 8.058-9.792 8.474-.063-.365-1.63-9.154-7.133-9.116z" fill-rule="evenodd" fill="red"/><path d="M118.02 160.42c1.2 0 2.12-.39 2.76-1.18s.96-1.92.96-3.4c0-1.47-.32-2.6-.96-3.39-.64-.78-1.56-1.17-2.76-1.17-1.18 0-2.09.39-2.72 1.17-.63.79-.95 1.92-.95 3.39 0 1.49.32 2.62.95 3.4.63.79 1.54 1.18 2.72 1.18m4.67 2.56c1.51.55 2.64 1.39 3.41 2.53.76 1.14 1.14 2.56 1.14 4.26 0 2.53-.78 4.46-2.34 5.79-1.56 1.32-3.85 1.98-6.88 1.98-3 0-5.28-.66-6.84-1.98s-2.35-3.25-2.35-5.79c0-1.7.39-3.12 1.17-4.26.76-1.14 1.9-1.98 3.4-2.53-1.68-.57-2.95-1.48-3.8-2.76-.87-1.26-1.3-2.85-1.3-4.78 0-2.97.82-5.22 2.46-6.75 1.63-1.51 4.05-2.27 7.26-2.27 3.22 0 5.66.76 7.31 2.27 1.64 1.53 2.46 3.78 2.46 6.75 0 1.93-.43 3.52-1.28 4.78-.86 1.28-2.14 2.19-3.82 2.76m-1.5 6c0-1.19-.27-2.11-.81-2.75-.55-.64-1.34-.96-2.36-.96-1 0-1.76.32-2.31.96-.54.64-.81 1.56-.81 2.75 0 1.2.27 2.11.81 2.74.55.64 1.31.96 2.31.96 1.02 0 1.81-.32 2.36-.96.54-.65.81-1.56.81-2.74" fill="red"/><path d="M125.308 139.993c.804-.004 1.687-.202 2.662-.642 10.643-8.197-3.704-21.423-9.763-32.776l-.177-.059c-6.658 12.411-19.334 26.069-9.647 32.835 7.671 3.462 9.723-8.059 9.792-8.474.063.365 1.63 9.154 7.133 9.116zM44.126 40.222c-.467.003-.98.12-1.546.38-6.183 4.842 2.151 12.654 5.671 19.361l.103.035c3.867-7.332 11.23-15.4 5.603-19.396-4.455-2.046-5.647 4.76-5.687 5.006-.037-.216-.947-5.408-4.144-5.386zM83.126 40.002c-.467.003-.98.12-1.546.38-6.183 4.842 2.151 12.655 5.671 19.361l.103.035c3.867-7.332 11.23-15.4 5.603-19.396-4.455-2.046-5.647 4.76-5.687 5.006-.037-.216-.947-5.408-4.144-5.386zM44.766 71.222c-.467.002-.98.119-1.546.38-6.183 4.842 2.151 12.654 5.671 19.361l.103.035c3.867-7.332 11.23-15.4 5.603-19.397-4.455-2.045-5.647 4.76-5.687 5.006-.037-.216-.947-5.407-4.144-5.385z" fill-rule="evenodd" fill="red"/><g fill="red"><path d="M84.126 70.222c-.467.002-.98.119-1.546.38-6.183 4.842 2.151 12.654 5.671 19.361l.103.035c3.867-7.332 11.23-15.4 5.603-19.397-4.455-2.045-5.647 4.76-5.687 5.006-.037-.216-.947-5.407-4.144-5.385z" fill-rule="evenodd"/></g><g fill="red"><path d="M53.234 119.78c.467-.002.98-.119 1.546-.38 6.183-4.842-2.151-12.654-5.671-19.361l-.103-.035c-3.867 7.332-11.23 15.4-5.603 19.397 4.455 2.045 5.647-4.76 5.687-5.006.037.216.947 5.407 4.144 5.385z" fill-rule="evenodd"/></g><g fill="red"><path d="M53.874 146.78c.467-.002.98-.119 1.546-.38 6.183-4.842-2.151-12.654-5.671-19.361l-.103-.035c-3.867 7.332-11.23 15.4-5.603 19.397 4.455 2.045 5.647-4.76 5.687-5.006.037.216.947 5.407 4.144 5.385z" fill-rule="evenodd"/></g><g fill="red"><path d="M91.238 146.78c.467-.002.98-.119 1.546-.38 6.183-4.842-2.151-12.654-5.671-19.361l-.103-.035c-3.867 7.332-11.23 15.4-5.603 19.397 4.455 2.045 5.647-4.76 5.687-5.006.037.216.947 5.407 4.144 5.385z" fill-rule="evenodd"/></g><g fill="red"><path d="M92.878 119c.467-.002.98-.119 1.546-.38 6.183-4.842-2.151-12.654-5.671-19.361l-.103-.035c-3.867 7.332-11.23 15.4-5.603 19.397 4.455 2.045 5.647-4.76 5.687-5.006.037.216.947 5.407 4.144 5.385z" fill-rule="evenodd"/></g></svg>