<svg xmlns="http://www.w3.org/2000/svg" viewBox="0 0 140 190" version="1.0"><defs><linearGradient id="a" y2="128.7" gradientUnits="userSpaceOnUse" x2="109" gradientTransform="translate(0 -1)" y1="63.1" x1="2"><stop offset="0" stop-color="#ebf0d0"/><stop offset="1" stop-color="#ffffeb"/></linearGradient></defs><path d="M21 5h103c8.86 0 16 7.136 16 16v153c0 8.86-7.14 16-16 16H21c-8.864 0-16-7.14-16-16V21c0-8.864 7.136-16 16-16z" fill-opacity=".498"/><path d="M17 1h103c8.86 0 16 7.136 16 16v153c0 8.86-7.14 16-16 16H17c-8.864 0-16-7.14-16-16V17C1 8.136 8.136 1 17 1z" fill="#fff"/><path d="M19 3h103c8.86 0 16 7.136 16 16v153c0 8.86-7.14 16-16 16H19c-8.864 0-16-7.14-16-16V19c0-8.864 7.136-16 16-16z" fill="#c7891f"/><path d="M18 2h103c8.86 0 16 7.136 16 16v153c0 8.86-7.14 16-16 16H18c-8.864 0-16-7.14-16-16V18C2 9.136 9.136 2 18 2z" fill="url(#a)"/><path d="M103.53 21c-.5.002-.97.099-1.44.281-.93.364-1.73 1.112-2.03 2.188-.173.645-.12 1.381.19 2s.93 1.119 1.75 1.125c.48.003.85-.196 1.16-.532.15-.167.31-.415.31-.718s-.21-.583-.47-.75l-.53.812c.07.046 0-.005 0-.062 0-.058.02-.022-.03.031-.1.106-.46.219-.44.219-.42-.003-.65-.217-.84-.594s-.23-.905-.13-1.281c.21-.751.72-1.231 1.41-1.5.69-.27 1.55-.298 2.25-.031 2.11.807 2.82 3.429 1.93 5.437-.77 1.764-2.58 2.83-4.5 2.906l-62.776.375v1l62.566-.375v.063c.07 0 .14-.06.21-.063h.35v-.093c2.16-.195 4.19-1.362 5.09-3.407 1.1-2.492.15-5.748-2.56-6.781-.47-.18-.97-.252-1.47-.25zm11.41 3.031c-.67.023-1.35.163-1.97.438-2.05.903-3.21 2.93-3.41 5.093h-.09v.344c0 .078-.06.141-.06.219h.06l.25 69.094h1l-.25-69.313c.08-1.919 1.14-3.72 2.91-4.5 2-.887 4.62-.178 5.43 1.938.27.698.24 1.561-.03 2.25-.27.688-.75 1.202-1.5 1.406-.37.102-.9.064-1.28-.125s-.59-.421-.59-.844c0 .018.11-.34.21-.437.06-.049.09-.031.04-.032-.06 0-.11-.07-.07 0l.82-.531c-.17-.259-.45-.468-.75-.469-.31 0-.55.16-.72.313-.34.306-.54.681-.53 1.156 0 .819.5 1.44 1.12 1.75a2.86 2.86 0 002 .188c1.08-.293 1.82-1.102 2.19-2.031.18-.465.28-.941.28-1.438s-.07-.996-.25-1.469c-.77-2.029-2.8-3.068-4.81-3zM29.281 90l.25 69.31c-.076 1.92-1.142 3.72-2.906 4.5-2.008.89-4.63.18-5.437-1.93-.267-.7-.239-1.57.031-2.26.269-.68.749-1.2 1.5-1.4.376-.1.904-.07 1.281.12s.591.42.594.85c0-.02-.113.34-.219.43-.053.05-.089.04-.031.04.057 0 .108.07.062 0l-.812.53c.167.26.447.47.75.47s.551-.16.718-.32c.336-.3.535-.68.532-1.15-.006-.82-.506-1.44-1.125-1.75s-1.355-.37-2-.19c-1.076.29-1.824 1.1-2.188 2.03-.182.47-.279.94-.281 1.44s.07.99.25 1.47c1.033 2.7 4.289 3.66 6.781 2.56 2.045-.9 3.212-2.93 3.407-5.09h.093v-.35c.003-.08.063-.14.063-.22h-.063L30.281 90h-1zm71.379 67.31l-62.566.38v-.07c-.078 0-.141.06-.219.07h-.344v.09c-2.163.2-4.19 1.36-5.093 3.41-1.101 2.49-.144 5.75 2.562 6.78.472.18.971.25 1.469.25.497 0 .972-.1 1.437-.28.93-.37 1.739-1.11 2.032-2.19.175-.65.122-1.38-.188-2s-.932-1.12-1.75-1.13c-.476 0-.85.2-1.156.54-.153.16-.314.41-.313.72.001.3.21.58.469.74l.531-.81c-.07-.04 0 .01 0 .07 0 .05-.017.02.031-.04.097-.1.455-.21.438-.22.423.01.655.22.844.6s.227.9.125 1.28c-.205.75-.718 1.23-1.407 1.5-.688.27-1.552.3-2.25.03-2.115-.81-2.824-3.43-1.937-5.44.779-1.76 2.581-2.83 4.5-2.9l62.785-.38v-1z" fill-rule="evenodd" fill="#9f0000"/><path d="M48.913 36.226c-2.87 4.598-11.673 12.425-6.097 14.843 3.387 1.114 4.994-1.166 5.676-2.673h.136l-2.248 7.608 5.208-.024s-2.242-7.312-2.248-7.591h.054c.551 1.232 2.645 3.782 4.946 2.812 6.727-2.724-3.179-10.473-5.427-14.975zM90.053 36.144c-2.87 4.597-11.673 12.425-6.097 14.843 3.387 1.114 4.994-1.166 5.676-2.674h.136l-2.248 7.608 5.208-.024s-2.242-7.311-2.248-7.59h.054c.551 1.232 2.645 3.782 4.946 2.812 6.727-2.724-3.179-10.473-5.427-14.975zM48.393 71.403c-2.87 4.598-11.673 12.425-6.097 14.843 3.387 1.114 4.994-1.166 5.676-2.673h.136L45.86 91.18l5.208-.023s-2.242-7.312-2.248-7.592h.054c.551 1.233 2.645 3.783 4.946 2.813 6.727-2.724-3.179-10.473-5.427-14.975zM88.35 70.228c-2.87 4.598-11.673 12.425-6.097 14.843 3.387 1.114 4.994-1.166 5.676-2.673h.136l-2.248 7.607 5.208-.023s-2.242-7.312-2.248-7.592h.054c.551 1.233 2.645 3.783 4.946 2.813 6.727-2.724-3.179-10.473-5.427-14.975zM48.207 119.385c2.87-4.598 11.673-12.425 6.097-14.843-3.387-1.114-4.994 1.166-5.676 2.673h-.136l2.248-7.607-5.208.023s2.242 7.312 2.248 7.592h-.054c-.551-1.233-2.645-3.783-4.946-2.813-6.727 2.724 3.179 10.473 5.427 14.975zM89.877 119.465c2.87-4.598 11.673-12.425 6.097-14.843-3.387-1.114-4.994 1.166-5.676 2.673h-.136l2.248-7.607-5.208.023s2.242 7.312 2.248 7.592h-.054c-.551-1.233-2.645-3.783-4.946-2.813-6.727 2.724 3.179 10.473 5.427 14.975zM90.517 150.025c2.87-4.598 11.673-12.425 6.097-14.843-3.387-1.114-4.994 1.166-5.676 2.673h-.136l2.248-7.607-5.208.023s2.242 7.312 2.248 7.592h-.054c-.551-1.233-2.645-3.783-4.946-2.813-6.727 2.724 3.179 10.473 5.427 14.975z" fill-rule="evenodd"/><g><path d="M49.387 150.025c2.87-4.598 11.673-12.425 6.097-14.843-3.387-1.114-4.994 1.166-5.676 2.673h-.136l2.248-7.607-5.208.023s2.242 7.312 2.248 7.592h-.054c-.551-1.233-2.645-3.783-4.946-2.813-6.727 2.724 3.179 10.473 5.427 14.975z" fill-rule="evenodd"/></g><path d="M20.645 48.665C15.72 56.49.61 69.814 10.182 73.928c5.811 1.894 8.576-1.983 9.747-4.549h.235l-3.859 12.946 8.937-.038s-3.85-12.445-3.859-12.921h.094c.946 2.097 4.536 6.439 8.484 4.785 11.546-4.635-5.455-17.824-9.316-25.486z" fill-rule="evenodd"/><path d="M20.604 28.816c-1.196 0-2.116.395-2.758 1.185s-.964 1.922-.964 3.396c0 1.473.322 2.605.964 3.396.642.777 1.562 1.165 2.758 1.165 1.185 0 2.093-.388 2.724-1.165.632-.791.947-1.923.947-3.396 0-1.487-.315-2.619-.947-3.396-.631-.79-1.539-1.185-2.724-1.185m-4.669-2.552c-1.506-.55-2.641-1.393-3.405-2.532-.765-1.139-1.147-2.559-1.147-4.26 0-2.532.781-4.461 2.343-5.787 1.561-1.326 3.854-1.989 6.878-1.989 3.001 0 5.283.663 6.844 1.989 1.562 1.313 2.343 3.242 2.343 5.787 0 1.701-.388 3.121-1.163 4.26-.764 1.139-1.9 1.982-3.406 2.532 1.684.562 2.952 1.48 3.805 2.752.863 1.26 1.295 2.854 1.295 4.783 0 2.974-.819 5.224-2.458 6.751-1.628 1.514-4.048 2.271-7.26 2.271-3.223 0-5.66-.757-7.31-2.271-1.639-1.527-2.459-3.777-2.459-6.751 0-1.929.427-3.523 1.279-4.783.864-1.272 2.138-2.19 3.821-2.752m1.496-6.008c0 1.192.271 2.11.814 2.753.553.643 1.34.964 2.359.964.996 0 1.766-.321 2.309-.964s.814-1.561.814-2.753-.271-2.103-.814-2.733c-.543-.643-1.313-.964-2.309-.965-1.019.001-1.806.322-2.359.965-.543.643-.814 1.554-.814 2.733"/><path d="M117.99 140c4.92-7.82 20.03-21.15 10.46-25.26-5.81-1.9-8.58 1.98-9.75 4.55h-.23l3.85-12.95-8.93.04s3.85 12.44 3.86 12.92h-.1c-.94-2.1-4.53-6.44-8.48-4.79-11.547 4.64 5.45 17.83 9.32 25.49z" fill-rule="evenodd"/><path d="M118.03 160.35c1.19 0 2.11-.39 2.75-1.19.65-.79.97-1.92.97-3.39s-.32-2.61-.97-3.4c-.64-.77-1.56-1.16-2.75-1.16s-2.1.39-2.73 1.16c-.63.79-.95 1.93-.95 3.4 0 1.49.32 2.62.95 3.39.63.8 1.54 1.19 2.73 1.19m4.66 2.55c1.51.55 2.65 1.4 3.41 2.53.76 1.14 1.15 2.56 1.15 4.26 0 2.54-.78 4.46-2.35 5.79-1.56 1.33-3.85 1.99-6.87 1.99-3.01 0-5.29-.66-6.85-1.99-1.56-1.31-2.34-3.24-2.34-5.79 0-1.7.39-3.12 1.16-4.26.77-1.13 1.9-1.98 3.41-2.53-1.69-.56-2.95-1.48-3.81-2.75-.86-1.26-1.29-2.85-1.29-4.78 0-2.98.82-5.23 2.46-6.75 1.62-1.52 4.04-2.27 7.26-2.27s5.66.75 7.31 2.27c1.64 1.52 2.45 3.77 2.45 6.75 0 1.93-.42 3.52-1.27 4.78-.87 1.27-2.14 2.19-3.83 2.75m-1.49 6.01c0-1.19-.27-2.11-.81-2.75-.56-.65-1.34-.97-2.36-.97-1 0-1.77.32-2.31.97-.55.64-.82 1.56-.82 2.75s.27 2.1.82 2.73c.54.65 1.31.97 2.31.97 1.02 0 1.8-.32 2.36-.97.54-.64.81-1.55.81-2.73"/></svg>