<svg xmlns="http://www.w3.org/2000/svg" viewBox="0 0 140 190" version="1.0"><defs><linearGradient id="a" y2="128.7" gradientUnits="userSpaceOnUse" y1="63.1" gradientTransform="translate(0 -1)" x2="109" x1="2"><stop offset="0" stop-color="#ebf0d0"/><stop offset="1" stop-color="#ffffeb"/></linearGradient></defs><path d="M21 5h103c8.86 0 16 7.136 16 16v153c0 8.86-7.14 16-16 16H21c-8.864 0-16-7.14-16-16V21c0-8.864 7.136-16 16-16z" fill-opacity=".498"/><path d="M17 1h103c8.86 0 16 7.136 16 16v153c0 8.86-7.14 16-16 16H17c-8.864 0-16-7.14-16-16V17C1 8.136 8.136 1 17 1z" fill="#fff"/><path d="M19 3h103c8.86 0 16 7.136 16 16v153c0 8.86-7.14 16-16 16H19c-8.864 0-16-7.14-16-16V19c0-8.864 7.136-16 16-16z" fill="#c7891f"/><path d="M18 2h103c8.86 0 16 7.136 16 16v153c0 8.86-7.14 16-16 16H18c-8.864 0-16-7.14-16-16V18C2 9.136 9.136 2 18 2z" fill="url(#a)"/><path d="M103.53 21c-.5.002-.97.099-1.44.281-.93.364-1.73 1.112-2.03 2.188-.173.645-.12 1.381.19 2s.93 1.119 1.75 1.125c.48.003.85-.196 1.16-.532.15-.167.31-.415.31-.718s-.21-.583-.47-.75l-.53.812c.07.046 0-.005 0-.062 0-.058.02-.022-.03.031-.1.106-.46.219-.44.219-.42-.003-.65-.217-.84-.594s-.23-.905-.13-1.281c.21-.751.72-1.231 1.41-1.5.69-.27 1.55-.298 2.25-.031 2.11.807 2.82 3.429 1.93 5.437-.77 1.764-2.58 2.83-4.5 2.906l-62.776.375v1l62.566-.375v.063c.07 0 .14-.06.21-.063h.35v-.093c2.16-.195 4.19-1.362 5.09-3.407 1.1-2.492.15-5.748-2.56-6.781-.47-.18-.97-.252-1.47-.25zm11.41 3.031c-.67.023-1.35.163-1.97.438-2.05.903-3.21 2.93-3.41 5.093h-.09v.344c0 .078-.06.141-.06.219h.06l.25 69.094h1l-.25-69.313c.08-1.919 1.14-3.72 2.91-4.5 2-.887 4.62-.178 5.43 1.938.27.698.24 1.561-.03 2.25-.27.688-.75 1.202-1.5 1.406-.37.102-.9.064-1.28-.125s-.59-.421-.59-.844c0 .018.11-.34.21-.437.06-.049.09-.031.04-.032-.06 0-.11-.07-.07 0l.82-.531c-.17-.259-.45-.468-.75-.469-.31 0-.55.16-.72.313-.34.306-.54.681-.53 1.156 0 .819.5 1.44 1.12 1.75a2.86 2.86 0 002 .188c1.08-.293 1.82-1.102 2.19-2.031.18-.465.28-.941.28-1.438s-.07-.996-.25-1.469c-.77-2.029-2.8-3.068-4.81-3zM29.281 90l.25 69.31c-.076 1.92-1.142 3.72-2.906 4.5-2.008.89-4.63.18-5.437-1.93-.267-.7-.239-1.57.031-2.26.269-.68.749-1.2 1.5-1.4.376-.1.904-.07 1.281.12s.591.42.594.85c0-.02-.113.34-.219.43-.053.05-.089.04-.031.04.057 0 .108.07.062 0l-.812.53c.167.26.447.47.75.47s.551-.16.718-.32c.336-.3.535-.68.532-1.15-.006-.82-.506-1.44-1.125-1.75s-1.355-.37-2-.19c-1.076.29-1.824 1.1-2.188 2.03-.182.47-.279.94-.281 1.44s.07.99.25 1.47c1.033 2.7 4.289 3.66 6.781 2.56 2.045-.9 3.212-2.93 3.407-5.09h.093v-.35c.003-.08.063-.14.063-.22h-.063L30.281 90h-1zm71.379 67.31l-62.566.38v-.07c-.078 0-.141.06-.219.07h-.344v.09c-2.163.2-4.19 1.36-5.093 3.41-1.101 2.49-.144 5.75 2.562 6.78.472.18.971.25 1.469.25.497 0 .972-.1 1.437-.28.93-.37 1.739-1.11 2.032-2.19.175-.65.122-1.38-.188-2s-.932-1.12-1.75-1.13c-.476 0-.85.2-1.156.54-.153.16-.314.41-.313.72.001.3.21.58.469.74l.531-.81c-.07-.04 0 .01 0 .07 0 .05-.017.02.031-.04.097-.1.455-.21.438-.22.423.01.655.22.844.6s.227.9.125 1.28c-.205.75-.718 1.23-1.407 1.5-.688.27-1.552.3-2.25.03-2.115-.81-2.824-3.43-1.937-5.44.779-1.76 2.581-2.83 4.5-2.9l62.785-.38v-1z" fill-rule="evenodd" fill="#9f0000"/><path d="M12.404 41.335v-5.546c1.019.576 1.994 1.011 2.924 1.306.931.281 1.85.422 2.758.422 1.905 0 3.389-.636 4.452-1.909 1.064-1.286 1.689-3.188 1.878-5.707-.754.67-1.556 1.173-2.409 1.507a7.525 7.525 0 01-2.775.503c-2.536 0-4.585-.891-6.147-2.673-1.55-1.795-2.325-4.152-2.325-7.073 0-3.228.863-5.813 2.591-7.756 1.739-1.942 4.065-2.913 6.978-2.913 3.234 0 5.737 1.319 7.509 3.958s2.658 6.37 2.658 11.192c0 4.957-1.035 8.855-3.107 11.695-2.071 2.826-4.912 4.24-8.522 4.24-1.163 0-2.276-.108-3.339-.322a16.27 16.27 0 01-3.124-.924m7.892-14.448c1.118 0 1.96-.435 2.525-1.306.565-.884.847-2.203.847-3.958 0-1.741-.282-3.054-.847-3.938-.565-.885-1.407-1.327-2.525-1.327-1.119 0-1.961.442-2.526 1.327-.565.884-.847 2.197-.847 3.938 0 1.755.282 3.074.847 3.958.565.871 1.407 1.306 2.526 1.306" fill="red"/><g fill="red"><path d="M13.554 48.845c-.804.004-1.687.201-2.662.642-10.643 8.197 3.704 21.422 9.763 32.775l.177.06c6.658-12.412 19.334-26.07 9.647-32.835-7.671-3.463-9.723 8.058-9.792 8.474-.063-.365-1.63-9.154-7.133-9.116z" fill-rule="evenodd"/></g><path d="M126.46 147.67v5.54c-1.02-.57-1.99-1.01-2.92-1.31-.93-.28-1.85-.42-2.76-.42-1.91 0-3.39.64-4.45 1.91-1.07 1.29-1.69 3.19-1.88 5.71a8.16 8.16 0 012.41-1.51c.85-.33 1.78-.5 2.77-.5 2.54 0 4.59.89 6.15 2.67 1.55 1.8 2.33 4.15 2.33 7.07 0 3.23-.87 5.82-2.6 7.76s-4.06 2.91-6.97 2.91c-3.24 0-5.74-1.32-7.51-3.95-1.77-2.64-2.66-6.37-2.66-11.2 0-4.95 1.03-8.85 3.11-11.69 2.07-2.83 4.91-4.24 8.52-4.24 1.16 0 2.27.11 3.34.32 1.06.2 2.1.51 3.12.93m-7.89 14.44c-1.12 0-1.96.44-2.53 1.31-.56.88-.84 2.2-.84 3.96 0 1.74.28 3.05.84 3.94.57.88 1.41 1.32 2.53 1.32s1.96-.44 2.53-1.32c.56-.89.84-2.2.84-3.94 0-1.76-.28-3.08-.84-3.96-.57-.87-1.41-1.31-2.53-1.31" fill="red"/><g fill="red"><path d="M125.308 139.993c.804-.004 1.687-.202 2.662-.642 10.643-8.197-3.704-21.423-9.763-32.776l-.177-.059c-6.658 12.411-19.334 26.069-9.647 32.835 7.671 3.462 9.723-8.059 9.792-8.474.063.365 1.63 9.154 7.133 9.116z" fill-rule="evenodd"/></g><g><path d="M64.122 85.22c-.467.002-.98.119-1.546.38-6.183 4.842 2.151 12.654 5.671 19.361l.103.035c3.867-7.332 11.23-15.4 5.603-19.397-4.455-2.045-5.647 4.76-5.687 5.006-.037-.216-.947-5.407-4.144-5.385zM44.122 40.22c-.467.002-.98.119-1.546.38-6.183 4.842 2.151 12.654 5.671 19.361l.103.035c3.867-7.332 11.23-15.4 5.603-19.397-4.455-2.045-5.647 4.76-5.687 5.006-.037-.216-.947-5.407-4.144-5.385zM83.122 40c-.467.002-.98.119-1.546.38-6.183 4.842 2.151 12.654 5.671 19.361l.103.035c3.867-7.332 11.23-15.4 5.603-19.397-4.455-2.045-5.647 4.76-5.687 5.006-.037-.216-.947-5.407-4.144-5.385zM44.762 71.22c-.467.002-.98.119-1.546.38-6.183 4.842 2.151 12.654 5.671 19.361l.103.035c3.867-7.332 11.23-15.4 5.603-19.397-4.455-2.045-5.647 4.76-5.687 5.006-.037-.216-.947-5.407-4.144-5.385zM84.122 70.22c-.467.002-.98.119-1.546.38-6.183 4.842 2.151 12.654 5.671 19.361l.103.035c3.867-7.332 11.23-15.4 5.603-19.397-4.455-2.045-5.647 4.76-5.687 5.006-.037-.216-.947-5.407-4.144-5.385zM53.238 119.778c.467-.002.98-.119 1.546-.38 6.183-4.842-2.151-12.654-5.671-19.361l-.103-.035c-3.867 7.332-11.23 15.4-5.603 19.397 4.455 2.045 5.647-4.76 5.687-5.006.037.216.947 5.407 4.144 5.385zM53.878 146.778c.467-.003.98-.12 1.546-.38 6.183-4.842-2.151-12.654-5.671-19.361l-.103-.035c-3.867 7.332-11.23 15.4-5.603 19.396 4.455 2.046 5.647-4.76 5.687-5.006.037.216.947 5.408 4.144 5.386zM91.238 146.778c.467-.003.98-.12 1.546-.38 6.183-4.842-2.151-12.654-5.671-19.361l-.103-.035c-3.867 7.332-11.23 15.4-5.603 19.396 4.455 2.046 5.647-4.76 5.687-5.006.037.216.947 5.408 4.144 5.386zM92.878 118.998c.467-.002.98-.119 1.546-.38 6.183-4.842-2.151-12.654-5.671-19.361l-.103-.035c-3.867 7.332-11.23 15.4-5.603 19.397 4.455 2.045 5.647-4.76 5.687-5.006.037.216.947 5.407 4.144 5.385z" fill-rule="evenodd" fill="red"/></g></svg>