<svg xmlns="http://www.w3.org/2000/svg" viewBox="0 0 140 190" version="1.0"><defs><linearGradient id="a" y2="128.7" gradientUnits="userSpaceOnUse" x2="109" gradientTransform="translate(0 -1)" y1="63.1" x1="2"><stop offset="0" stop-color="#ebf0d0"/><stop offset="1" stop-color="#ffffeb"/></linearGradient></defs><path d="M21 5h103c8.86 0 16 7.136 16 16v153c0 8.86-7.14 16-16 16H21c-8.864 0-16-7.14-16-16V21c0-8.864 7.136-16 16-16z" fill-opacity=".498"/><path d="M17 1h103c8.86 0 16 7.136 16 16v153c0 8.86-7.14 16-16 16H17c-8.864 0-16-7.14-16-16V17C1 8.136 8.136 1 17 1z" fill="#fff"/><path d="M19 3h103c8.86 0 16 7.136 16 16v153c0 8.86-7.14 16-16 16H19c-8.864 0-16-7.14-16-16V19c0-8.864 7.136-16 16-16z" fill="#c7891f"/><path d="M18 2h103c8.86 0 16 7.136 16 16v153c0 8.86-7.14 16-16 16H18c-8.864 0-16-7.14-16-16V18C2 9.136 9.136 2 18 2z" fill="url(#a)"/><path d="M103.53 21c-.5.002-.97.099-1.44.281-.93.364-1.73 1.112-2.03 2.188-.173.645-.12 1.381.19 2s.93 1.119 1.75 1.125c.48.003.85-.196 1.16-.532.15-.167.31-.415.31-.718s-.21-.583-.47-.75l-.53.812c.07.046 0-.005 0-.062 0-.058.02-.022-.03.031-.1.106-.46.219-.44.219-.42-.003-.65-.217-.84-.594s-.23-.905-.13-1.281c.21-.751.72-1.231 1.41-1.5.69-.27 1.55-.298 2.25-.031 2.11.807 2.82 3.429 1.93 5.437-.77 1.764-2.58 2.83-4.5 2.906l-62.776.375v1l62.566-.375v.063c.07 0 .14-.06.21-.063h.35v-.093c2.16-.195 4.19-1.362 5.09-3.407 1.1-2.492.15-5.748-2.56-6.781-.47-.18-.97-.252-1.47-.25zm11.41 3.031c-.67.023-1.35.163-1.97.438-2.05.903-3.21 2.93-3.41 5.093h-.09v.344c0 .078-.06.141-.06.219h.06l.25 69.094h1l-.25-69.313c.08-1.919 1.14-3.72 2.91-4.5 2-.887 4.62-.178 5.43 1.938.27.698.24 1.561-.03 2.25-.27.688-.75 1.202-1.5 1.406-.37.102-.9.064-1.28-.125s-.59-.421-.59-.844c0 .018.11-.34.21-.437.06-.049.09-.031.04-.032-.06 0-.11-.07-.07 0l.82-.531c-.17-.259-.45-.468-.75-.469-.31 0-.55.16-.72.313-.34.306-.54.681-.53 1.156 0 .819.5 1.44 1.12 1.75a2.86 2.86 0 002 .188c1.08-.293 1.82-1.102 2.19-2.031.18-.465.28-.941.28-1.438s-.07-.996-.25-1.469c-.77-2.029-2.8-3.068-4.81-3zM29.281 90l.25 69.31c-.076 1.92-1.142 3.72-2.906 4.5-2.008.89-4.63.18-5.437-1.93-.267-.7-.239-1.57.031-2.26.269-.68.749-1.2 1.5-1.4.376-.1.904-.07 1.281.12s.591.42.594.85c0-.02-.113.34-.219.43-.053.05-.089.04-.031.04.057 0 .108.07.062 0l-.812.53c.167.26.447.47.75.47s.551-.16.718-.32c.336-.3.535-.68.532-1.15-.006-.82-.506-1.44-1.125-1.75s-1.355-.37-2-.19c-1.076.29-1.824 1.1-2.188 2.03-.182.47-.279.94-.281 1.44s.07.99.25 1.47c1.033 2.7 4.289 3.66 6.781 2.56 2.045-.9 3.212-2.93 3.407-5.09h.093v-.35c.003-.08.063-.14.063-.22h-.063L30.281 90h-1zm71.379 67.31l-62.566.38v-.07c-.078 0-.141.06-.219.07h-.344v.09c-2.163.2-4.19 1.36-5.093 3.41-1.101 2.49-.144 5.75 2.562 6.78.472.18.971.25 1.469.25.497 0 .972-.1 1.437-.28.93-.37 1.739-1.11 2.032-2.19.175-.65.122-1.38-.188-2s-.932-1.12-1.75-1.13c-.476 0-.85.2-1.156.54-.153.16-.314.41-.313.72.001.3.21.58.469.74l.531-.81c-.07-.04 0 .01 0 .07 0 .05-.017.02.031-.04.097-.1.455-.21.438-.22.423.01.655.22.844.6s.227.9.125 1.28c-.205.75-.718 1.23-1.407 1.5-.688.27-1.552.3-2.25.03-2.115-.81-2.824-3.43-1.937-5.44.779-1.76 2.581-2.83 4.5-2.9l62.785-.38v-1z" fill-rule="evenodd" fill="#9f0000"/><g><path d="M21.09 48.665C16.16 56.49 1.05 69.812 10.63 73.928c5.81 1.892 8.57-1.984 9.74-4.549h.24l-3.86 12.946 8.94-.04s-3.85-12.445-3.86-12.918h.09c.95 2.096 4.54 6.437 8.49 4.786 11.54-4.638-5.46-17.824-9.32-25.488z" fill-rule="evenodd"/></g><path d="M25.079 36.775H15.078l-1.579 5.465H7.07l9.187-30h7.626l9.187 30h-6.429l-1.562-5.465m-8.406-5.566h6.794l-3.389-11.936-3.405 11.936"/><g><path d="M117.6 140.004c4.93-7.824 20.04-21.147 10.46-25.263-5.81-1.892-8.57 1.984-9.74 4.549h-.24l3.86-12.946-8.94.04s3.85 12.445 3.86 12.918h-.09c-.95-2.096-4.54-6.437-8.49-4.786-11.54 4.638 5.46 17.824 9.32 25.488z" fill-rule="evenodd"/></g><path d="M113.61 152.1h10l1.58-5.47h6.43l-9.19 30h-7.62l-9.19-30h6.43l1.56 5.47m8.41 5.56h-6.8l3.39 11.94 3.41-11.94"/><path d="M69.781 59.062C59.206 75.876 26.756 104.5 47.312 113.34c12.479 4.07 18.423-4.26 20.938-9.78h.5l-8.281 27.82 19.187-.07s-8.262-26.76-8.281-27.78h.187c2.032 4.51 9.74 13.84 18.219 10.28 24.799-9.96-11.708-38.283-20-54.748zM59.625 74.469h5.969l7.562 14.25v-14.25h5.094V95.25h-6L64.688 81v14.25h-5.063V74.469zm6.563 23.656h.593v4.565h-.593v-4.565zm1.906 0h.625v.687h-.625v-.687zm-23.032.125c.704 0 1.267.182 1.688.594.421.41.625.965.625 1.656 0 .69-.204 1.24-.625 1.66-.421.41-.984.62-1.688.62-.705 0-1.295-.21-1.718-.62-.422-.41-.625-.97-.625-1.66 0-.691.203-1.246.625-1.656.423-.412 1.013-.594 1.718-.594zm18.5 0c.301 0 .58.023.844.094.267.068.517.174.75.312v.625a2.517 2.517 0 00-.75-.406 2.373 2.373 0 00-.812-.156c-.574 0-1.008.162-1.313.469-.305.304-.469.734-.469 1.312 0 .58.164 1.04.469 1.34.305.31.739.44 1.313.44.291 0 .555-.03.812-.12.26-.1.522-.22.75-.41v.59c-.237.14-.483.25-.75.32-.264.07-.548.12-.844.12-.759 0-1.375-.22-1.812-.62-.437-.41-.656-.96-.656-1.66 0-.703.219-1.252.656-1.656.437-.406 1.053-.594 1.812-.594zm17.844.219h.625v.937h1.281v.438h-1.281v1.776c0 .27.042.43.125.5.085.08.274.13.532.13h.624v.44h-.624c-.478 0-.819-.07-1-.22-.182-.16-.282-.43-.282-.85v-1.776h-.437v-.438h.437v-.937zm-36.344.25c-.492 0-.896.148-1.187.469-.289.32-.438.759-.437 1.312-.001.55.148.99.437 1.31.291.32.695.47 1.187.47.493 0 .87-.15 1.157-.47.289-.32.437-.76.437-1.31 0-.553-.148-.992-.437-1.312-.287-.321-.664-.469-1.157-.469zm5.157.625c.457 0 .809.152 1.093.468.287.318.438.738.438 1.248 0 .52-.151.94-.438 1.25-.284.32-.636.47-1.093.47-.276 0-.52-.06-.719-.16-.197-.09-.37-.24-.5-.43v1.75h-.625v-4.534H49v.5c.13-.195.303-.343.5-.437.199-.096.443-.125.719-.125zm4.125 0c.506 0 .925.121 1.218.406.296.28.438.67.438 1.16v.28h-2.844c.027.37.147.65.375.84.231.19.559.28.969.28.238 0 .466-.01.688-.06.224-.05.436-.15.656-.25v.53c-.222.08-.455.15-.688.19s-.447.06-.687.06c-.601 0-1.086-.16-1.438-.47-.349-.3-.531-.7-.531-1.22 0-.53.168-.96.5-1.278.334-.316.779-.468 1.344-.468zm4.468 0c.433 0 .747.109.969.344.222.232.344.582.344 1.032v1.97H59.5v-1.97c0-.31-.049-.53-.188-.69-.138-.153-.347-.217-.624-.218-.334.001-.62.096-.813.278-.193.19-.281.43-.281.75v1.85h-.625v-3.284h.625v.5c.148-.197.332-.34.531-.437.202-.098.425-.125.687-.125zm13 0c.458 0 .81.152 1.094.468.287.318.438.738.438 1.248 0 .52-.151.94-.438 1.25-.284.32-.636.47-1.094.47-.275 0-.519-.06-.718-.16-.197-.09-.37-.24-.5-.43v1.75h-.625v-4.534h.625v.5c.13-.195.303-.343.5-.437.199-.096.443-.125.718-.125zm3.876 0c.544 0 .949.097 1.218.344.269.246.406.622.406 1.122v1.88h-.624v-.5c-.142.2-.321.34-.532.43-.21.1-.445.16-.75.16-.385 0-.709-.09-.937-.28a.92.92 0 01-.344-.75c0-.37.155-.66.437-.84.285-.19.688-.29 1.25-.29h.876v-.06c-.001-.25-.094-.43-.282-.56-.186-.137-.443-.219-.781-.219-.215 0-.421.018-.625.063s-.406.129-.594.216v-.498c.227-.076.444-.15.656-.187.213-.039.424-.031.626-.031zm4.781 0c.042 0 .073-.006.125 0 .051.004.125.021.187.031v.531c-.069-.035-.136-.047-.219-.062a1.401 1.401 0 00-.281-.032c-.349.001-.624.114-.812.308-.186.2-.282.48-.281.85v1.72h-.626v-3.284h.626v.5c.129-.199.322-.342.531-.437.208-.098.452-.125.75-.125zm7.312 0c.538 0 .943.133 1.25.437.307.309.469.739.469 1.279s-.162.95-.469 1.25c-.307.31-.712.47-1.25.47-.54 0-.974-.16-1.281-.47-.305-.3-.438-.71-.438-1.25.001-.54.133-.97.438-1.279.307-.304.741-.437 1.281-.437zm4.625 0c.043 0 .074-.006.125 0 .052.004.125.021.188.031v.531c-.07-.035-.167-.047-.25-.062a1.115 1.115 0 00-.25-.032c-.35.001-.625.114-.813.308-.186.2-.281.48-.281.85v1.72H90.5v-3.284h.625v.5c.13-.199.292-.342.5-.437.208-.098.483-.125.781-.125zm2.094 0c.278 0 .519.029.719.125.199.095.372.244.5.437v-.5h.593v2.874c0 .56-.121.98-.406 1.25-.284.27-.725.41-1.312.41-.218 0-.433 0-.625-.03a3.516 3.516 0 01-.563-.13v-.53c.182.09.354.15.532.19.177.04.378.06.562.06.406 0 .705-.1.906-.28.202-.18.313-.47.313-.84v-.26c-.128.2-.301.35-.5.44-.2.1-.441.13-.719.13-.462 0-.843-.16-1.125-.47s-.406-.71-.406-1.22.124-.91.406-1.219c.282-.306.663-.437 1.125-.437zm-26.406.062h.625v3.284h-.625v-3.284zm-18.032.375c-.327 0-.593.117-.781.339-.186.23-.281.55-.281.94 0 .4.095.71.281.94.188.22.454.31.781.31.328 0 .565-.09.75-.31.189-.23.282-.54.282-.94 0-.39-.093-.71-.282-.94-.185-.222-.422-.339-.75-.339zm4.282 0c-.345 0-.604.08-.813.249-.206.17-.343.41-.375.72h2.219c-.004-.29-.095-.51-.281-.69a1.08 1.08 0 00-.75-.279zm17.312 0c-.327 0-.593.117-.781.339-.186.23-.281.55-.281.94 0 .4.095.71.281.94.188.22.454.31.781.31s.564-.09.75-.31c.188-.23.281-.54.282-.94-.001-.39-.094-.71-.282-.94a.915.915 0 00-.75-.339zm16.125 0c-.331 0-.588.117-.781.339-.193.23-.313.55-.312.94 0 .4.122.68.312.91.193.22.447.34.781.34.33 0 .589-.11.781-.34.193-.23.282-.52.282-.91s-.089-.71-.282-.94c-.192-.224-.451-.339-.781-.339zm6.875 0c-.331 0-.595.098-.781.309-.184.22-.281.52-.281.91s.097.69.281.91c.186.21.45.34.781.34.334 0 .598-.13.782-.34.185-.22.281-.52.281-.91s-.096-.69-.281-.91c-.184-.211-.448-.309-.782-.309zm-18.594 1.249c-.499 0-.838.06-1.031.16-.192.1-.281.26-.281.5 0 .19.075.35.219.47.145.11.345.15.593.15.343 0 .607-.1.813-.31.208-.21.312-.49.313-.84v-.13h-.626zm8.157.91h.719v.75h-.719v-.75z" fill-rule="evenodd"/></svg>