<svg xmlns="http://www.w3.org/2000/svg" viewBox="0 0 140 190" version="1.0"><defs><linearGradient id="a" y2="128.7" gradientUnits="userSpaceOnUse" x2="109" gradientTransform="translate(0 -1)" y1="63.1" x1="2"><stop offset="0" stop-color="#ebf0d0"/><stop offset="1" stop-color="#ffffeb"/></linearGradient></defs><path d="M21 5h103c8.86 0 16 7.136 16 16v153c0 8.86-7.14 16-16 16H21c-8.864 0-16-7.14-16-16V21c0-8.864 7.136-16 16-16z" fill-opacity=".498"/><path d="M17 1h103c8.86 0 16 7.136 16 16v153c0 8.86-7.14 16-16 16H17c-8.864 0-16-7.14-16-16V17C1 8.136 8.136 1 17 1z" fill="#fff"/><path d="M19 3h103c8.86 0 16 7.136 16 16v153c0 8.86-7.14 16-16 16H19c-8.864 0-16-7.14-16-16V19c0-8.864 7.136-16 16-16z" fill="#c7891f"/><path d="M18 2h103c8.86 0 16 7.136 16 16v153c0 8.86-7.14 16-16 16H18c-8.864 0-16-7.14-16-16V18C2 9.136 9.136 2 18 2z" fill="url(#a)"/><path d="M22.167 10h94.413c8.13 0 14.67 6.541 14.67 14.667v140.25c0 8.12-6.54 14.66-14.67 14.66H22.167A14.632 14.632 0 017.5 164.917V24.667c0-8.129 6.541-14.67 14.667-14.67z" fill="#d80002"/><path d="M22.156 9.375A15.254 15.254 0 006.875 24.656v140.25c0 8.46 6.82 15.31 15.281 15.31h94.434c8.46 0 15.29-6.85 15.29-15.31V24.656c0-8.465-6.83-15.285-15.29-15.285H22.156zm0 1.25h94.434c7.79 0 14.03 6.241 14.03 14.031v140.25c0 7.79-6.24 14.06-14.03 14.06H22.156c-7.79 0-14.031-6.27-14.031-14.06V24.656a13.98 13.98 0 0114.031-14.035z" fill="#830007"/><path d="M38.906 20c-3.373 0-6.335 2.079-8.375 5.156-2.039 3.078-3.25 7.205-3.25 11.75 0 4.153 2.18 8.941 4.219 13.532 1.675 3.771 2.957 7.155 3.375 9.624-.227-.169-.391-.228-.656-.468-1.177-1.066-2.631-2.749-4.157-4.5-1.525-1.752-3.135-3.561-4.718-5-1.584-1.439-3.121-2.625-4.969-2.625-3.373 0-6.335 2.078-8.375 5.156s-3.25 7.204-3.25 11.75 1.21 8.672 3.25 11.75c2.04 3.078 5.002 5.156 8.375 5.156 1.884 0 3.444-1.225 5-2.719 1.556-1.493 3.095-3.392 4.594-5.218 1.498-1.826 2.938-3.576 4.156-4.719a7.24 7.24 0 011.375-1.031c.061 1.735.179 5.275.219 9.594.023 2.482.019 4.951-.063 6.843-.041.946-.082 1.744-.156 2.313a5.848 5.848 0 01-.125.656c-1.932 2.394-4.031 2.188-4.031 2.188l-1.375-.094.031 1.375.062 3.156.032 1.219h1.218l15.063-.094h1.219l.031-1.219.063-3.156.031-1.375-1.375.094s-2.117.272-4.063-2.188c.166.21.1.142.063 0a6.14 6.14 0 01-.125-.656 31.733 31.733 0 01-.25-2.438c-.128-1.964-.176-4.481-.219-7a425.116 425.116 0 01-.062-6.937c-.001-1.157-.003-1.468 0-2.063.036.016.02-.02.062 0 .399.196.975.618 1.594 1.188 1.237 1.139 2.721 2.875 4.25 4.688 1.529 1.812 3.11 3.707 4.687 5.187s3.126 2.687 5 2.687c3.374 0 6.336-2.078 8.375-5.156 2.04-3.077 3.25-7.204 3.25-11.75 0-4.545-1.21-8.672-3.25-11.75-2.039-3.077-5.001-5.156-8.375-5.156-1.826 0-3.362 1.135-4.937 2.531s-3.173 3.179-4.719 4.875c-1.546 1.697-3.055 3.31-4.313 4.344a6.992 6.992 0 01-1.062.719c.53-2.536 1.989-5.991 3.812-9.813 2.178-4.564 4.469-9.332 4.469-13.5 0-4.545-1.21-8.672-3.25-11.75C45.242 22.079 42.28 20 38.906 20zm59.75.062l-1.281 2.563c-8.858 17.714-13.361 26.534-26.5 36.156l-1.344 1 1.313 1c12.548 9.595 19.445 16.664 26.781 32.625l1.156 2.532 1.125-2.563c6.564-15.19 12.854-23.84 26.754-33.219l1.75-1.187-1.88-.969c-13.81-7.03-20.21-17.831-26.874-35.281l-1-2.657zM38.906 22.5c2.353 0 4.565 1.441 6.282 4.031 1.716 2.59 2.843 6.278 2.843 10.375 0 3.187-2.052 7.866-4.219 12.406-2.166 4.541-4.467 8.864-4.5 12.469v.875l.782.313c.86.353 1.778.225 2.562-.094.785-.319 1.509-.828 2.25-1.437 1.483-1.22 3.011-2.892 4.563-4.594 1.551-1.702 3.119-3.436 4.531-4.688 1.412-1.251 2.699-1.906 3.281-1.906 2.353 0 4.565 1.441 6.281 4.031 1.717 2.59 2.844 6.278 2.844 10.375 0 4.098-1.127 7.785-2.844 10.375-1.716 2.59-3.928 4.031-6.281 4.031-.591 0-1.87-.675-3.281-2-1.411-1.324-2.972-3.157-4.5-4.968-1.528-1.812-3.034-3.616-4.469-4.938-.717-.66-1.4-1.191-2.156-1.562a3.529 3.529 0 00-2-.313v-.031l-.313-.031-1.374-.125v4.781c0 1.92.019 4.429.062 6.969s.117 5.086.25 7.125c.066 1.019.146 1.912.25 2.625.052.356.081.682.156.968.076.287.141.532.438.907 1.768 2.235 3.564 2.724 4.812 2.906v.875l-12.625.094v-.875c1.253-.191 3.076-.702 4.844-2.938.292-.368.334-.622.406-.906.073-.284.143-.591.188-.937.09-.694.144-1.545.187-2.532.086-1.974.086-4.463.063-6.968a490.609 490.609 0 00-.25-11.094l-.031-.844-.782-.281c-.883-.33-1.803-.156-2.562.219-.759.374-1.446.927-2.156 1.593-1.421 1.333-2.909 3.144-4.407 4.969-1.497 1.825-3.018 3.668-4.406 5s-2.651 2.031-3.25 2.031c-2.353 0-4.565-1.441-6.281-4.031-1.717-2.59-2.844-6.278-2.844-10.375S12.377 56.59 14.094 54c1.716-2.59 3.928-4.031 6.281-4.031.57 0 1.862.679 3.281 1.969 1.419 1.289 2.979 3.065 4.5 4.812 1.522 1.747 3.002 3.444 4.375 4.688.687.621 1.341 1.163 2.063 1.5.722.336 1.675.489 2.5.031l.594-.344.062-.687c.223-3.58-1.934-7.92-3.969-12.5-2.034-4.581-4-9.322-4-12.532 0-4.097 1.128-7.785 2.844-10.375s3.929-4.031 6.281-4.031zm59.5 3.625C104.54 41.564 111.16 52.25 123.72 59.25c-12.33 8.672-18.97 17.49-25.032 30.875-6.827-14.042-13.881-21.616-25.126-30.344 11.834-9.039 17.067-18.172 24.844-33.656zM25.125 97.5c-1.928.013-4.004.524-6.219 1.531l-.125.063-.125.062C12.722 103.77 10.13 109.33 10 115.22c-.13 5.89 2.099 12.07 5.375 18.37 6.552 12.62 17.484 25.89 23.875 37.97l.219.44.469.16.374.12 1 .34.5-.93c7.065-13.28 17.441-27.36 23.5-40.1 3.03-6.36 5.003-12.43 4.844-18-.159-5.56-2.61-10.62-8.062-14.465L62 99.062l-.094-.031c-4.364-1.985-8.201-1.885-11.25-.437-3.049 1.446-5.276 4.106-6.937 6.936-1.577 2.68-2.633 5.53-3.344 7.88-.525-1.74-1.136-3.64-2.125-5.69-1.211-2.51-2.788-5.03-4.938-6.97-2.149-1.938-4.904-3.272-8.187-3.25zm73.781.406l-1.187 1.875c-5.144 8.179-15.869 19.209-22.781 29.339-3.457 5.07-6.017 9.94-6.344 14.41-.164 2.24.271 4.38 1.5 6.25s3.207 3.42 5.937 4.6h.063l.062.03c6.526 2.12 11.438 1.01 14.875-1.47 1.939-1.4 3.322-3.18 4.469-4.97.051 1.96.136 4.25.156 6.65.022 2.66-.02 5.34-.125 7.38-.052 1.02-.127 1.87-.219 2.47-.041.27-.088.47-.124.59-2.472 2.16-5.532 2.06-5.532 2.06l-1.344-.06.032 1.35.062 2.87.032 1.22h1.218l19.224-.09h1.21l.03-1.22.07-2.81.03-1.35-1.34.06s-3.03.07-5.5-2.09c-.04-.13-.11-.32-.16-.59-.1-.6-.21-1.46-.28-2.47-.15-2.02-.22-4.65-.25-7.28-.04-2.63-.05-5.25-.03-7.28v-.29c1.18 1.91 2.65 3.89 4.68 5.57 3.13 2.57 7.43 4.15 12.13 2.18 3.24-1.3 5.56-2.9 7.09-4.84s2.21-4.2 2.16-6.53c-.1-4.66-2.79-9.6-6.41-14.69-7.23-10.17-18.47-21.09-22.404-28.905l-1-1.969zM25.125 100c2.611-.018 4.7 1 6.5 2.62 1.8 1.63 3.256 3.87 4.375 6.19 2.238 4.65 3.131 9.51 3.188 9.85h2.437c.066-.39 1.235-6.75 4.25-11.88 1.507-2.56 3.445-4.77 5.844-5.9 2.37-1.13 5.219-1.346 9 .34 4.874 3.46 6.798 7.57 6.937 12.47.141 4.91-1.68 10.65-4.625 16.84-5.654 11.89-15.331 25.32-22.469 38.35-6.64-12.02-16.864-24.69-22.968-36.44-3.178-6.12-5.209-11.94-5.094-17.16.114-5.19 2.25-9.83 7.656-14.06 1.884-.83 3.51-1.21 4.969-1.22zm73.594 2.69c4.841 8.35 14.991 18.28 21.561 27.53 3.5 4.92 5.86 9.59 5.94 13.28.04 1.84-.45 3.44-1.63 4.94-1.17 1.49-3.1 2.9-6.06 4.09-3.78 1.59-6.9.4-9.59-1.81-2.69-2.22-4.75-5.5-5.69-7.6l-.34-.74h-2.75l.03 1.28c0 .1-.02 1.64-.03 3.68-.02 2.05-.01 4.69.03 7.35.03 2.65.12 5.33.28 7.43.08 1.06.15 1.99.28 2.72.06.37.15.7.25 1 .1.31.15.6.56.97 2.41 2.19 4.73 2.53 6.1 2.63v.47l-16.785.09v-.5c1.37-.09 3.703-.43 6.125-2.62.419-.39.467-.7.562-1 .096-.31.162-.66.219-1.04.115-.74.196-1.65.25-2.72.109-2.13.148-4.81.125-7.5-.022-2.68-.1-5.36-.156-7.43-.028-1.04-.044-1.91-.062-2.57l-.032-1.15.032-1.28h-2.157l-.343.72c-1.225 2.68-3.032 5.95-5.876 8-2.821 2.03-6.656 3.03-12.531 1.15-2.408-1.03-3.942-2.28-4.843-3.65-.902-1.37-1.227-2.91-1.094-4.72.265-3.62 2.553-8.24 5.906-13.16 6.323-9.27 16.06-19.46 21.719-27.84z" fill-rule="evenodd" fill="#fff"/></svg>